<?xml version="1.0" standalone="no"?>
<!DOCTYPE svg PUBLIC "-//W3C//DTD SVG 20010904//EN"
 "http://www.w3.org/TR/2001/REC-SVG-20010904/DTD/svg10.dtd">
<svg version="1.0" xmlns="http://www.w3.org/2000/svg"
 width="910.000000pt" height="661.000000pt" viewBox="0 0 910.000000 661.000000"
 preserveAspectRatio="xMidYMid meet">
<metadata>
Created by potrace 1.15, written by Peter Selinger 2001-2017
</metadata>
<g transform="translate(0.000000,661.000000) scale(0.100000,-0.100000)"
fill="#000000" stroke="none">
<path d="M1447 5383 c-4 -1248 -6 -1296 -47 -1390 -23 -52 -101 -132 -155
-158 -51 -25 -154 -25 -245 -1 -36 10 -150 50 -255 88 -301 112 -362 108 -512
-35 -84 -80 -153 -185 -180 -272 -67 -221 56 -717 213 -855 133 -116 418 -118
670 -4 200 89 266 85 386 -25 71 -65 85 -104 98 -271 5 -70 10 -624 10 -1266
l0 -1142 613 -6 c336 -3 856 -8 1153 -11 l542 -5 46 56 c25 31 46 66 46 78 0
12 -27 89 -61 171 -132 329 -148 491 -68 695 65 163 199 323 320 382 125 61
467 101 674 80 187 -20 313 -55 414 -117 72 -43 190 -166 220 -228 63 -130
101 -504 67 -650 -17 -74 -41 -126 -92 -200 -40 -59 -41 -70 -10 -140 26 -60
46 -72 142 -88 35 -6 499 -12 1125 -16 l1066 -5 7 1013 c8 1141 17 1508 39
1560 39 95 216 179 376 179 50 0 83 -8 160 -39 137 -55 201 -71 321 -77 164
-9 282 25 350 103 39 44 107 184 144 295 57 169 57 453 1 576 -53 115 -189
263 -283 308 -61 29 -193 57 -243 51 -26 -3 -96 -28 -155 -55 -201 -91 -355
-130 -474 -119 -109 10 -158 63 -179 197 -23 144 -43 857 -58 2013 l-6 527
-3088 0 -3088 0 -4 -1197z m2660 642 c118 -40 258 -130 388 -249 28 -25 53
-45 56 -46 3 0 14 8 25 18 158 145 293 236 414 278 101 35 204 32 268 -9 52
-34 95 -99 124 -187 38 -120 35 -359 -8 -567 -5 -28 -3 -34 17 -41 207 -80
255 -103 359 -173 69 -46 151 -132 180 -189 30 -60 37 -144 16 -207 -46 -140
-260 -305 -502 -387 -45 -15 -68 -28 -67 -37 1 -8 9 -54 18 -104 40 -232 26
-415 -41 -553 -56 -116 -130 -158 -258 -150 -142 10 -285 91 -501 282 -44 40
-33 43 -118 -34 -171 -154 -363 -250 -501 -250 -123 0 -200 62 -255 203 -36
93 -41 314 -12 486 12 68 20 125 19 126 -2 0 -43 16 -93 34 -161 59 -299 145
-387 239 -71 77 -101 139 -106 220 -4 55 0 71 26 125 68 137 241 264 467 342
44 16 83 31 88 35 4 3 -2 62 -14 131 -28 164 -24 378 10 481 59 183 196 247
388 183z m-929 -3028 c76 -27 110 -57 147 -131 32 -63 35 -76 35 -158 0 -54
-6 -102 -14 -123 -21 -49 -103 -133 -156 -160 -73 -37 -76 -44 -42 -112 17
-32 62 -114 101 -182 76 -131 89 -165 71 -176 -35 -22 -61 7 -196 211 -74 113
-143 208 -152 212 -29 12 -190 8 -203 -5 -7 -7 -17 -90 -26 -205 -14 -195 -23
-228 -56 -215 -11 4 -15 57 -20 284 -4 153 -7 392 -7 532 l0 254 238 -5 c175
-4 248 -10 280 -21z m3011 -117 c6 -28 11 -64 11 -80 0 -48 9 -58 66 -71 29
-7 62 -21 71 -32 17 -18 17 -20 -5 -37 -13 -11 -43 -22 -68 -26 -28 -4 -48
-13 -54 -25 -6 -10 -10 -126 -10 -272 0 -247 1 -255 23 -288 19 -28 32 -35 80
-45 32 -6 61 -14 64 -18 15 -14 -16 -41 -55 -49 -53 -10 -114 6 -154 42 l-31
28 -13 294 c-7 162 -15 301 -19 310 -3 9 -23 21 -44 28 -78 23 -76 55 3 85 48
18 48 20 62 121 8 63 20 85 44 85 14 0 21 -12 29 -50z m-457 -162 c24 -7 61
-31 87 -55 42 -40 44 -44 28 -60 -15 -15 -22 -14 -95 20 -57 27 -91 37 -128
37 -96 0 -200 -75 -248 -179 -17 -38 -21 -64 -20 -151 0 -92 3 -112 26 -163
35 -74 88 -123 157 -143 67 -20 127 -14 216 21 95 39 129 25 81 -32 -43 -51
-115 -75 -225 -76 -89 -1 -100 1 -150 28 -63 35 -132 110 -166 182 -49 101
-42 295 13 396 28 51 104 127 156 155 79 41 175 48 268 20z m-1697 -18 c60
-29 129 -108 156 -178 12 -31 24 -89 27 -128 l4 -72 -103 -6 c-57 -3 -177 -8
-266 -12 -175 -6 -211 -12 -226 -35 -16 -26 21 -124 67 -176 86 -98 194 -117
362 -62 96 32 117 32 98 1 -23 -36 -90 -72 -164 -88 -133 -28 -243 1 -338 90
-216 202 -128 617 145 686 62 15 186 5 238 -20z m821 14 c64 -22 101 -51 131
-102 l26 -44 1 -294 c1 -266 -1 -295 -16 -311 -17 -16 -20 -15 -52 16 l-34 33
-88 -37 c-66 -29 -101 -38 -148 -38 -153 -3 -256 107 -244 262 6 74 32 127 81
162 84 61 211 65 330 10 102 -46 101 -47 95 59 -7 121 -34 175 -103 210 -72
35 -136 32 -250 -13 -91 -36 -122 -36 -99 1 16 25 82 67 134 85 60 21 177 21
236 1z"/>
<path d="M5071 5929 c-99 -20 -255 -115 -395 -241 l-49 -45 84 -104 c46 -57
101 -129 122 -160 l39 -57 91 -11 c51 -7 136 -21 191 -32 54 -11 101 -18 103
-15 13 13 33 155 39 276 7 153 -3 228 -41 307 -39 78 -91 101 -184 82z"/>
<path d="M3890 5908 c-24 -16 -43 -42 -60 -83 -23 -56 -25 -70 -24 -230 0
-117 6 -195 17 -249 9 -43 18 -80 20 -82 1 -2 61 8 132 21 72 13 158 26 191
30 l62 7 47 66 c27 37 82 109 124 161 l75 94 -54 49 c-96 86 -183 147 -269
190 -68 34 -96 42 -155 46 -63 3 -75 1 -106 -20z"/>
<path d="M4488 5483 c-61 -78 -108 -140 -108 -145 0 -2 77 -3 170 -3 94 0 170
2 170 3 0 15 -158 212 -170 212 -4 0 -32 -30 -62 -67z"/>
<path d="M4350 5211 l-64 -6 -53 -85 c-29 -47 -87 -153 -129 -235 l-77 -150
71 -140 c39 -77 97 -183 130 -235 l58 -95 60 -6 c80 -9 291 -10 390 -3 l81 7
51 86 c59 100 146 264 181 338 l24 52 -63 123 c-34 68 -92 173 -128 234 l-66
111 -90 7 c-100 7 -279 5 -376 -3z m315 -245 c150 -89 177 -291 54 -415 -47
-47 -103 -71 -169 -71 -199 0 -319 244 -200 409 78 107 209 139 315 77z"/>
<path d="M3983 5168 c-83 -16 -103 -23 -103 -37 0 -10 16 -62 36 -117 20 -54
38 -107 41 -116 8 -28 18 -21 39 24 10 24 47 92 82 152 34 61 62 111 62 113 0
7 -62 0 -157 -19z"/>
<path d="M4960 5187 c0 -3 20 -40 45 -82 25 -42 61 -107 80 -145 38 -76 50
-88 60 -62 34 88 83 242 77 246 -20 12 -262 52 -262 43z"/>
<path d="M3660 5081 c-247 -92 -410 -228 -410 -342 0 -110 173 -265 389 -348
133 -51 123 -53 149 31 12 40 43 126 69 192 l47 118 -18 47 c-10 25 -41 110
-70 188 -35 98 -56 143 -66 142 -8 0 -49 -13 -90 -28z"/>
<path d="M5311 5038 c-13 -40 -43 -124 -68 -186 l-45 -114 60 -151 c33 -84 65
-169 72 -189 6 -21 18 -38 25 -38 7 0 56 17 108 38 232 94 387 230 387 341 0
17 -9 49 -19 70 -25 47 -120 135 -196 181 -61 36 -259 120 -286 120 -10 0 -22
-23 -38 -72z"/>
<path d="M3918 4456 c-42 -120 -45 -136 -30 -140 28 -9 247 -44 250 -41 2 2
-28 61 -66 132 -39 70 -76 140 -83 156 -7 15 -15 27 -19 27 -3 0 -27 -61 -52
-134z"/>
<path d="M5083 4508 c-23 -46 -61 -116 -83 -155 -41 -71 -41 -73 -18 -73 50 0
248 43 248 54 0 22 -87 250 -96 253 -5 2 -28 -34 -51 -79z"/>
<path d="M5155 4189 c-49 -10 -133 -23 -186 -30 l-96 -12 -46 -67 c-25 -37
-78 -107 -116 -156 -39 -49 -71 -93 -71 -99 0 -10 92 -95 166 -152 62 -49 182
-110 249 -128 152 -39 221 33 245 254 13 124 -17 413 -44 410 -6 -1 -51 -10
-101 -20z"/>
<path d="M3837 4186 c-20 -52 -39 -242 -35 -355 5 -152 31 -230 87 -268 74
-50 221 -18 367 80 87 58 214 165 214 181 0 6 -30 48 -66 91 -37 44 -91 114
-120 156 l-54 76 -76 7 c-42 4 -124 16 -183 26 -127 24 -127 24 -134 6z"/>
<path d="M4380 4130 c0 -6 169 -220 174 -220 6 0 166 208 166 217 0 4 -76 8
-170 8 -93 0 -170 -2 -170 -5z"/>
<path d="M2817 2943 c-39 -3 -50 -8 -57 -28 -8 -22 -12 -130 -11 -327 1 -120
-1 -118 169 -118 156 1 213 11 259 46 41 31 91 116 99 169 13 89 -71 223 -153
244 -45 11 -237 20 -306 14z"/>
<path d="M3771 2644 c-62 -31 -120 -103 -145 -180 -22 -67 -15 -81 41 -90 77
-11 450 1 468 16 51 43 -24 191 -129 250 -70 41 -158 42 -235 4z"/>
<path d="M4615 2346 c-76 -39 -100 -82 -100 -176 0 -68 3 -80 28 -113 46 -60
96 -80 189 -75 63 4 86 10 124 34 70 43 88 73 92 152 3 58 0 72 -20 102 -39
58 -106 92 -191 97 -63 4 -79 1 -122 -21z"/>
</g>
</svg>
