<?xml version="1.0" standalone="no"?>
<!DOCTYPE svg PUBLIC "-//W3C//DTD SVG 20010904//EN"
 "http://www.w3.org/TR/2001/REC-SVG-20010904/DTD/svg10.dtd">
<svg version="1.0" xmlns="http://www.w3.org/2000/svg"
 width="858.000000pt" height="1032.000000pt" viewBox="0 0 858.000000 1032.000000"
 preserveAspectRatio="xMidYMid meet">
<metadata>
Created by potrace 1.15, written by Peter Selinger 2001-2017
</metadata>
<g transform="translate(0.000000,1032.000000) scale(0.100000,-0.100000)"
fill="#000000" stroke="none">
<path d="M3905 10305 c-211 -35 -284 -75 -485 -274 -141 -139 -162 -165 -196
-236 l-39 -79 2 -211 3 -210 46 -150 c25 -82 70 -204 99 -270 67 -150 72 -179
45 -225 -11 -19 -36 -67 -55 -107 -30 -63 -38 -73 -69 -82 -23 -6 -310 -6
-813 -1 -428 5 -1144 12 -1590 16 l-813 7 0 -189 c0 -607 35 -2537 51 -2784
15 -239 31 -264 169 -257 66 3 95 12 235 71 305 129 271 121 505 121 178 0
212 -3 255 -19 89 -34 188 -99 273 -180 139 -133 230 -291 315 -546 68 -203
82 -284 82 -490 -1 -201 -21 -327 -82 -509 -94 -282 -237 -472 -428 -566 -115
-56 -181 -70 -340 -70 -151 0 -224 12 -407 66 -456 133 -503 135 -626 24 l-46
-42 12 -664 c7 -365 15 -970 18 -1344 2 -374 7 -776 10 -892 l6 -213 4249 0
4249 0 0 588 c0 323 -3 935 -7 1360 l-6 772 -39 60 c-44 67 -103 108 -175 121
-35 7 -73 2 -181 -21 -215 -47 -318 -84 -439 -156 -120 -71 -147 -79 -236 -70
-74 9 -250 52 -287 71 -41 21 -267 242 -322 315 -68 88 -133 227 -162 341 -42
166 -51 265 -50 554 0 236 3 282 22 370 37 171 85 268 199 401 160 185 352
293 551 310 110 9 166 -10 457 -154 321 -159 366 -177 411 -162 130 43 206
407 234 1115 12 292 28 558 56 930 14 189 16 323 11 940 -3 397 -9 729 -13
739 -7 18 -37 19 -863 13 -787 -4 -901 -3 -1416 19 -375 15 -616 30 -730 44
-93 12 -170 22 -171 23 0 1 -12 18 -27 38 -15 19 -34 64 -43 100 -15 56 -15
76 -4 164 11 91 19 112 75 225 35 69 70 150 79 180 20 67 21 185 2 327 -8 59
-17 142 -21 183 -4 41 -12 88 -19 105 -7 17 -50 73 -95 125 -45 52 -96 119
-112 147 -61 106 -142 147 -326 163 -65 6 -149 16 -188 21 -121 18 -696 21
-800 4z m473 -2981 c386 -79 702 -395 826 -825 28 -98 62 -296 53 -305 -9 -9
-143 27 -178 48 -30 18 -32 24 -93 246 -118 424 -423 663 -816 639 -239 -15
-420 -129 -579 -366 -158 -237 -220 -430 -242 -750 -24 -351 31 -660 169 -954
l49 -104 71 -6 c128 -11 226 -85 259 -196 61 -210 -170 -401 -366 -302 -98 51
-160 169 -144 279 4 31 6 67 5 80 -2 12 -36 93 -76 180 -107 229 -166 417
-187 596 -16 133 -12 438 6 551 61 380 205 691 420 911 135 138 292 231 467
278 73 20 260 20 356 0z m-306 -1134 c20 -6 59 -26 86 -44 68 -46 67 -45 236
-56 427 -29 733 -126 1038 -331 266 -179 507 -438 624 -672 110 -217 147 -475
103 -707 -13 -67 -73 -197 -127 -276 -124 -183 -356 -339 -605 -406 -72 -20
-107 -22 -282 -23 -189 0 -205 2 -299 28 -125 36 -264 86 -272 98 -3 6 27 44
68 85 l73 75 105 -29 c156 -44 241 -56 385 -55 149 1 244 22 360 77 226 107
379 321 405 566 30 277 -150 648 -428 886 -212 182 -527 347 -787 413 -104 26
-295 51 -395 51 l-79 0 -28 -37 c-62 -83 -120 -132 -178 -148 -125 -37 -268
37 -316 163 -37 100 -5 210 85 289 67 59 143 76 228 53z m-1174 -684 c12 -46
22 -93 22 -105 0 -13 -34 -57 -88 -113 -237 -250 -337 -482 -317 -733 9 -112
30 -186 78 -285 56 -116 186 -248 298 -303 133 -65 208 -80 414 -80 226 0 336
17 495 80 136 53 334 155 434 222 199 135 463 418 551 591 21 41 22 49 10 80
-61 167 -65 189 -43 264 23 76 133 163 229 181 71 13 215 -69 254 -146 69
-132 15 -278 -132 -357 -72 -38 -96 -64 -164 -177 -243 -407 -629 -713 -1095
-868 -220 -73 -278 -82 -509 -82 -184 1 -209 3 -310 28 -336 84 -565 290 -663
597 -31 98 -43 177 -43 302 0 295 112 561 336 797 88 92 198 191 214 191 4 0
17 -38 29 -84z m1585 -2552 l37 -7 0 -565 0 -565 -62 7 c-70 8 -103 25 -120
61 -15 34 -38 39 -68 15 -66 -53 -174 -87 -237 -75 -85 16 -150 70 -199 165
-28 54 -29 59 -29 215 0 156 1 161 28 214 37 69 108 140 172 171 68 33 150 32
229 -3 32 -15 62 -24 67 -21 5 3 9 93 9 200 l0 194 68 0 c37 0 84 -3 105 -6z
m-2128 -29 c94 -3 203 -10 243 -15 131 -17 241 -88 282 -182 29 -67 25 -176
-9 -255 -24 -53 -89 -123 -148 -158 -40 -23 -41 -34 -7 -66 48 -45 264 -379
264 -408 0 -10 -28 -12 -111 -9 l-111 3 -32 39 c-18 21 -77 112 -132 202 l-99
164 -67 0 -68 0 0 -209 0 -208 -117 5 c-65 2 -119 5 -119 6 -1 0 -4 250 -7
554 l-6 552 37 -5 c20 -2 114 -7 207 -10z m1155 -347 c66 -30 123 -86 156
-150 20 -39 24 -62 24 -133 0 -83 -1 -86 -26 -95 -14 -6 -85 -10 -157 -11 -73
-1 -170 -4 -217 -7 l-85 -7 -3 -35 c-3 -42 30 -103 71 -134 42 -31 171 -35
251 -7 33 12 69 21 81 21 27 0 78 -52 73 -77 -5 -25 -90 -80 -152 -98 -29 -9
-96 -16 -153 -16 -98 -1 -103 0 -172 36 -194 102 -269 329 -176 533 43 95 122
163 230 199 64 21 189 12 255 -19z m1380 -235 c0 -278 6 -323 46 -350 37 -24
114 -19 179 11 l55 25 0 285 0 286 100 0 100 0 0 -391 0 -390 -47 6 c-102 13
-110 15 -123 40 -7 13 -19 26 -27 30 -9 3 -52 -11 -97 -32 -90 -41 -164 -52
-221 -33 -48 16 -109 71 -142 127 -24 41 -26 56 -34 231 -4 103 -8 238 -9 300
l0 112 110 0 110 0 0 -257z m793 248 c14 -6 56 -58 108 -136 96 -145 82 -144
157 -7 24 43 57 95 73 115 l30 37 90 0 c49 0 89 -3 89 -6 0 -3 -40 -67 -89
-142 -49 -76 -98 -157 -111 -181 l-22 -44 78 -126 c43 -69 95 -159 117 -200
l40 -74 -103 5 c-118 6 -106 -3 -190 133 -28 44 -61 93 -74 110 -30 38 -37 33
-115 -94 -33 -53 -74 -109 -90 -125 -29 -28 -36 -30 -111 -30 -44 0 -82 3 -85
6 -3 3 49 91 115 196 66 105 120 197 120 203 0 7 -49 87 -108 178 -60 91 -112
172 -116 179 -6 9 14 12 83 12 49 0 100 -4 114 -9z"/>
<path d="M4067 2421 c-45 -50 -61 -123 -55 -241 6 -96 33 -171 68 -190 39 -21
142 -8 189 23 l41 27 0 174 c0 96 -4 186 -9 199 -12 32 -57 47 -136 47 -60 0
-64 -2 -98 -39z"/>
<path d="M2360 2580 l0 -183 99 6 c103 5 140 18 177 59 54 59 58 177 8 230
-42 44 -85 59 -191 65 l-93 6 0 -183z"/>
<path d="M3316 2470 c-46 -14 -95 -69 -111 -124 -8 -27 -13 -52 -10 -54 2 -3
76 -1 162 4 l158 9 3 30 c3 34 -28 87 -68 116 -30 22 -95 31 -134 19z"/>
</g>
</svg>
