<?xml version="1.0" standalone="no"?>
<!DOCTYPE svg PUBLIC "-//W3C//DTD SVG 20010904//EN"
 "http://www.w3.org/TR/2001/REC-SVG-20010904/DTD/svg10.dtd">
<svg version="1.0" xmlns="http://www.w3.org/2000/svg"
 width="711.000000pt" height="797.000000pt" viewBox="0 0 711.000000 797.000000"
 preserveAspectRatio="xMidYMid meet">
<metadata>
Created by potrace 1.15, written by Peter Selinger 2001-2017
</metadata>
<g transform="translate(0.000000,797.000000) scale(0.100000,-0.100000)"
fill="#000000" stroke="black" >
<path stroke-width="10" d="M100 6838 c0 -1252 6 -1379 58 -1391 31 -6 115 24 245 89 165 83 239
103 399 111 208 10 379 -23 516 -99 31 -17 91 -66 132 -107 117 -117 195 -292
220 -491 21 -177 7 -468 -31 -620 -51 -203 -191 -385 -359 -467 -110 -54 -182
-73 -305 -80 -132 -7 -244 13 -437 78 -103 35 -178 54 -244 61 -129 15 -162 5
-197 -60 -33 -60 -44 -139 -52 -357 -8 -254 -9 -1943 0 -1997 l7 -46 102 -6
c102 -6 2201 -26 2721 -26 l279 0 72 -73 c90 -92 109 -140 109 -277 0 -120
-25 -204 -96 -320 -87 -143 -99 -175 -99 -261 0 -222 150 -409 361 -449 58
-11 656 -15 717 -4 215 36 446 264 454 448 2 35 -11 70 -69 187 -39 79 -78
165 -87 191 -69 210 -25 475 92 553 36 23 51 26 237 35 232 12 1250 17 1828
10 l399 -5 -1 2190 c-1 2438 -10 3722 -28 4138 l-6 147 -3468 0 -3469 0 0
-1102z m4515 211 c55 -28 112 -60 128 -71 l27 -19 0 -513 c0 -394 -3 -516 -12
-528 -27 -35 -394 -228 -418 -220 -23 7 -341 182 -372 204 l-28 19 0 219 0
218 48 29 c99 61 349 193 365 193 10 0 40 -11 67 -25 27 -14 54 -25 60 -25 7
0 10 89 10 263 0 246 4 307 18 307 4 0 51 -23 107 -51z m-2275 -560 c102 -55
191 -108 198 -117 19 -25 17 -571 -2 -578 -13 -5 -143 59 -228 113 l-38 23 0
145 0 145 -47 31 c-73 46 -88 47 -158 10 l-62 -32 -6 -143 c-4 -80 -9 -150
-12 -158 -7 -18 -242 -141 -255 -133 -6 4 -10 109 -10 290 l0 285 38 23 c33
21 253 143 328 182 16 8 38 15 49 15 11 0 103 -45 205 -101z m988 62 c134 -68
316 -171 324 -184 14 -21 10 -421 -4 -439 -16 -18 -143 -95 -292 -173 l-108
-58 -66 32 c-95 47 -314 170 -334 189 -16 13 -18 38 -18 226 0 116 4 216 8
222 13 20 382 224 404 224 5 0 43 -18 86 -39z m2215 -2 c45 -23 137 -73 205
-111 l122 -69 0 -69 0 -70 -42 -27 c-88 -55 -209 -115 -223 -109 -11 4 -15 22
-15 64 0 66 -1 67 -79 108 l-55 28 -65 -35 -66 -35 0 -79 0 -79 190 -106 c107
-59 190 -111 190 -119 0 -8 -55 -43 -125 -79 l-125 -65 -190 102 c-104 57
-196 108 -203 113 -9 8 -12 63 -10 236 l3 224 195 109 c107 60 198 109 203
109 4 0 44 -19 90 -41z m-43 -339 c37 -19 40 -23 40 -63 0 -40 -3 -45 -40 -66
l-39 -22 -41 21 c-38 19 -40 23 -40 65 0 41 3 46 38 64 46 25 36 25 82 1z
m-1599 -460 c20 -6 281 -142 580 -303 964 -520 990 -536 1019 -592 13 -26 15
-146 18 -858 4 -934 7 -887 -73 -973 -51 -55 -184 -132 -1031 -592 -479 -261
-510 -276 -593 -276 -63 -1 -72 2 -211 75 -182 96 -413 231 -417 244 -3 9 209
105 230 105 5 0 93 -45 196 -100 103 -55 194 -100 203 -100 19 0 353 175 838
440 479 261 584 320 598 334 18 18 18 1584 0 1602 -34 33 -783 445 -1274 700
l-162 85 -108 -57 c-573 -299 -1326 -716 -1335 -740 -9 -23 -11 -1503 -3
-1556 6 -37 10 -39 173 -127 268 -145 295 -156 376 -156 84 1 123 19 164 75
l29 40 4 790 c3 679 6 793 18 801 8 5 60 8 115 7 l100 -3 7 -50 c9 -71 8
-1190 -1 -1430 -8 -188 -10 -203 -34 -252 -66 -129 -160 -188 -334 -207 -111
-13 -209 13 -388 103 -175 88 -356 191 -394 225 -13 11 -36 44 -52 71 l-29 50
0 829 c0 828 0 829 21 872 43 85 67 101 564 376 256 142 684 372 880 474 143
75 166 84 215 84 30 0 71 -5 91 -10z m604 -1119 c110 -29 176 -64 245 -128 66
-61 101 -124 127 -227 l17 -69 -23 -18 c-18 -15 -40 -19 -106 -19 -94 0 -96 1
-143 96 -36 71 -94 126 -161 150 -61 22 -345 32 -432 15 -140 -28 -188 -72
-190 -175 -1 -46 3 -61 20 -80 33 -35 139 -62 426 -106 367 -56 487 -94 571
-178 59 -60 77 -103 82 -201 9 -163 -41 -270 -164 -354 -114 -77 -242 -112
-457 -123 -371 -19 -651 81 -745 266 -35 71 -58 165 -48 203 5 21 13 25 67 31
33 4 84 4 113 1 l52 -7 24 -71 c53 -156 131 -195 407 -204 347 -12 493 49 493
206 0 118 -75 150 -465 202 -260 34 -359 56 -448 98 -87 42 -131 82 -164 149
-25 51 -28 68 -28 157 0 91 3 105 28 154 61 115 196 207 355 242 124 27 430
21 547 -10z"/>
<path d="M4273 6249 c-48 -28 -52 -32 -58 -79 -12 -85 -2 -105 70 -145 l64
-36 53 27 c84 42 88 47 88 128 l0 71 -59 33 c-70 38 -90 39 -158 1z"/>
</g>
</svg>
