<?xml version="1.0" standalone="no"?>
<!DOCTYPE svg PUBLIC "-//W3C//DTD SVG 20010904//EN"
 "http://www.w3.org/TR/2001/REC-SVG-20010904/DTD/svg10.dtd">
<svg version="1.0" xmlns="http://www.w3.org/2000/svg"
 width="1135.000000pt" height="850.000000pt" viewBox="0 0 1135.000000 850.000000"
 preserveAspectRatio="xMidYMid meet">
<metadata>
Created by potrace 1.15, written by Peter Selinger 2001-2017
</metadata>
<g transform="translate(0.000000,850.000000) scale(0.100000,-0.100000)"
fill="#000000" stroke="none">
<path d="M8343 8490 c-178 -7 -184 -8 -247 -39 -103 -50 -135 -111 -136 -253
0 -75 41 -285 70 -357 10 -25 48 -95 84 -155 145 -240 152 -405 25 -586 -172
-244 -408 -375 -766 -424 -410 -56 -825 -8 -1044 120 -136 80 -284 227 -337
334 -25 52 -27 63 -27 195 l0 140 64 180 c147 416 169 506 156 611 -12 98 -61
142 -180 164 -93 17 -1131 28 -2677 29 l-1397 1 5 -1157 5 -1158 -64 -565
c-59 -514 -68 -575 -99 -677 -21 -69 -49 -134 -71 -167 -47 -70 -76 -78 -174
-46 -70 24 -353 159 -526 252 -96 52 -101 53 -191 56 -116 5 -193 -14 -296
-70 -184 -100 -260 -173 -364 -347 -138 -232 -144 -256 -152 -626 -7 -298 3
-413 52 -582 56 -192 123 -301 291 -464 124 -122 166 -147 314 -184 172 -44
197 -39 452 89 135 67 236 112 277 121 85 19 308 20 353 1 18 -7 62 -46 99
-87 l66 -74 11 -635 c6 -349 14 -971 18 -1381 l6 -747 4426 5 c2434 2 4551 4
4705 4 l278 -1 -6 3388 c-3 1863 -9 3770 -12 4238 l-6 851 -577 6 c-703 8
-2159 6 -2408 -3z m-1754 -2361 c48 -27 104 -104 122 -169 10 -35 13 -243 11
-930 -1 -487 -5 -960 -10 -1052 -7 -165 -8 -167 -39 -210 -17 -24 -52 -56 -78
-73 -41 -26 -60 -31 -129 -34 -159 -7 -250 39 -281 142 -24 79 -41 1267 -26
1765 14 473 21 506 113 553 59 30 107 39 195 35 62 -3 91 -9 122 -27z m-1180
-583 c117 -60 189 -170 194 -296 3 -71 -8 -88 -178 -270 -395 -423 -499 -635
-521 -1056 -9 -174 10 -427 40 -547 66 -259 201 -483 422 -698 325 -316 694
-455 1158 -436 315 12 589 103 829 274 105 75 316 285 389 388 195 276 277
574 265 963 -8 253 -37 376 -142 599 -98 208 -203 343 -452 584 l-119 116 8
81 c10 111 38 170 109 236 64 60 144 96 210 96 138 0 440 -270 642 -575 113
-171 249 -477 313 -705 26 -93 27 -102 31 -450 5 -395 2 -436 -54 -620 -127
-419 -293 -701 -579 -982 -325 -318 -755 -538 -1161 -594 -158 -21 -486 -29
-618 -15 -611 66 -1197 423 -1539 936 -169 253 -301 562 -340 797 -37 220 -38
631 -1 837 57 325 208 652 426 926 134 169 348 372 442 420 67 34 146 31 226
-9z"/>
</g>
</svg>
