<?xml version="1.0" standalone="no"?>
<!DOCTYPE svg PUBLIC "-//W3C//DTD SVG 20010904//EN"
 "http://www.w3.org/TR/2001/REC-SVG-20010904/DTD/svg10.dtd">
<svg version="1.0" xmlns="http://www.w3.org/2000/svg"
 width="1946.000000pt" height="1049.000000pt" viewBox="0 0 1946.000000 1049.000000"
 preserveAspectRatio="xMidYMid meet">
<metadata>
Created by potrace 1.15, written by Peter Selinger 2001-2017
</metadata>
<g transform="translate(0.000000,1049.000000) scale(0.100000,-0.100000)"
fill="#000000" stroke="none">
<path d="M4200 10475 c-463 -42 -631 -90 -769 -224 -57 -55 -139 -169 -178
-246 -66 -129 -98 -321 -90 -533 6 -162 16 -199 121 -440 86 -196 146 -368
146 -419 0 -30 -8 -44 -43 -78 l-43 -41 -769 -17 c-488 -11 -1101 -18 -1672
-17 l-903 0 0 -4230 0 -4230 8791 0 8792 0 -7 1113 c-7 1131 -15 1477 -42
1806 -11 137 -12 193 -3 218 13 40 75 94 149 131 49 24 65 27 160 27 123 -1
208 -23 323 -85 133 -72 197 -83 472 -84 l240 -1 67 32 c77 36 128 81 274 241
199 217 243 375 244 870 0 315 -8 360 -90 527 -102 206 -238 392 -356 486
-132 105 -271 142 -396 105 -33 -9 -93 -16 -145 -16 -105 0 -178 -17 -270 -63
-38 -19 -87 -37 -111 -41 -24 -3 -82 -18 -130 -32 -64 -19 -101 -24 -142 -21
-94 8 -103 16 -148 136 l-40 106 -11 670 c-6 369 -11 1051 -11 1518 l0 847
-1332 -1 c-1585 -2 -2091 -8 -2110 -27 -20 -21 -13 -171 12 -246 11 -35 45
-105 75 -157 149 -254 189 -364 187 -514 -1 -200 -98 -433 -245 -591 -168
-181 -376 -302 -606 -355 -191 -44 -497 -34 -786 26 -140 29 -223 66 -282 127
-93 96 -282 443 -328 602 -57 198 -18 452 96 632 80 127 98 229 51 293 -27 37
-105 78 -187 97 -63 15 -237 17 -1750 25 -924 4 -2380 8 -3235 9 -1024 0
-1570 4 -1600 11 -68 15 -116 53 -145 115 -53 112 -29 257 114 697 88 268 101
322 101 417 0 132 -46 269 -148 441 -106 180 -253 266 -607 356 -134 34 -149
36 -335 39 -110 1 -262 -3 -350 -11z m7210 -4895 c204 -10 256 -22 398 -91
183 -89 280 -209 304 -378 42 -300 -147 -516 -504 -576 -21 -3 -38 -9 -38 -13
0 -5 581 -798 622 -849 8 -10 -29 -13 -180 -13 l-191 0 -112 158 c-61 86 -195
275 -298 419 l-186 263 -447 0 -448 0 0 -420 0 -420 -180 0 -180 0 0 965 0
965 633 -1 c347 0 711 -4 807 -9z m-8391 -688 c369 -739 418 -832 437 -832 6
0 179 333 384 740 205 407 378 747 384 755 10 14 49 17 259 22 l247 6 0 -971
0 -972 -180 0 -180 0 0 413 c0 480 -11 1077 -19 1077 -9 0 -33 -45 -416 -792
l-357 -698 -123 0 -124 0 -94 183 c-52 100 -224 435 -383 745 -159 309 -291
562 -295 562 -11 0 -19 -412 -19 -957 l0 -533 -180 0 -180 0 0 970 0 970 248
0 247 0 344 -688z m5201 588 l0 -100 -725 0 -725 0 0 -315 0 -315 680 0 680 0
0 -95 0 -95 -680 0 -680 0 0 -365 0 -365 765 0 765 0 0 -95 0 -95 -945 0 -945
0 0 970 0 970 905 0 905 0 0 -100z m6015 -98 c744 -864 1168 -1352 1176 -1352
5 0 9 317 9 775 l0 775 185 0 185 0 0 -970 0 -970 -202 1 -203 0 -211 247
c-117 136 -344 400 -505 586 -162 187 -366 423 -454 525 -88 102 -165 186
-170 186 -7 0 -11 -274 -13 -772 l-2 -773 -180 0 -180 0 0 970 0 970 198 0
197 -1 170 -197z m-11350 -2392 c116 -27 185 -51 195 -70 9 -17 15 -160 6
-160 -2 0 -42 18 -88 40 -128 61 -220 82 -368 83 -146 1 -214 -15 -274 -64
-89 -75 -100 -205 -23 -287 37 -40 67 -50 272 -92 109 -22 223 -47 254 -56
179 -52 281 -162 281 -304 0 -162 -122 -304 -313 -366 -144 -46 -407 -33 -610
30 -112 35 -117 41 -117 143 0 45 2 83 5 83 2 0 30 -16 61 -36 128 -82 255
-115 454 -117 129 -2 138 -1 195 26 124 58 155 100 155 209 0 133 -52 170
-305 218 -238 45 -291 60 -366 97 -37 18 -82 50 -100 70 -84 97 -108 239 -57
338 45 87 148 169 268 212 62 23 74 24 245 19 99 -3 203 -10 230 -16z m9475
-7 c36 -11 97 -33 135 -49 l70 -30 3 -87 c1 -48 0 -87 -3 -87 -4 0 -26 13 -49
29 -136 94 -240 125 -426 125 l-135 1 -83 -44 c-177 -93 -257 -246 -256 -491
1 -171 45 -305 131 -401 155 -172 498 -183 747 -25 28 18 57 36 64 40 9 5 12
-13 12 -79 l0 -86 -42 -18 c-152 -65 -280 -93 -423 -93 -280 -2 -481 109 -583
322 -57 118 -76 221 -69 374 6 141 33 242 94 345 73 122 213 225 363 266 82
22 361 15 450 -12z m-6030 -53 l0 -60 -245 0 -245 0 0 -580 0 -580 -85 0 -85
0 0 580 0 580 -245 0 -245 0 0 60 0 60 575 0 575 0 0 -60z m2805 -575 c133
-346 241 -633 238 -637 -2 -5 -39 -8 -82 -8 l-78 0 -64 178 -64 177 -155 3
c-85 1 -226 -1 -313 -5 l-159 -8 -65 -172 -66 -173 -75 0 c-68 0 -74 2 -69 19
2 11 112 299 242 640 l238 622 115 -3 114 -3 243 -630z m5785 333 c0 -290 5
-382 19 -376 4 2 155 155 336 341 l328 337 91 0 91 0 -293 -293 c-160 -161
-292 -299 -292 -306 0 -16 48 -71 364 -411 130 -140 236 -258 236 -262 0 -4
-42 -8 -93 -8 l-93 0 -103 113 c-232 250 -434 457 -448 457 -8 0 -44 -28 -79
-62 l-64 -61 0 -224 0 -223 -80 0 -80 0 0 640 0 640 80 0 80 0 0 -302z"/>
<path d="M10330 5045 l0 -345 503 0 c659 0 718 7 815 94 63 58 86 121 86 246
1 97 -1 109 -26 151 -35 60 -93 111 -170 151 l-63 32 -275 7 c-151 4 -409 8
-572 8 l-298 1 0 -345z"/>
<path d="M8747 2809 c-25 -56 -127 -319 -192 -497 -21 -56 -36 -105 -33 -108
11 -10 301 -17 401 -9 76 5 97 10 97 22 0 21 -227 624 -239 636 -7 7 -18 -6
-34 -44z"/>
</g>
</svg>
