<?xml version="1.0" standalone="no"?>
<!DOCTYPE svg PUBLIC "-//W3C//DTD SVG 20010904//EN"
 "http://www.w3.org/TR/2001/REC-SVG-20010904/DTD/svg10.dtd">
<svg version="1.0" xmlns="http://www.w3.org/2000/svg"
 width="807.000000pt" height="664.000000pt" viewBox="0 0 807.000000 664.000000"
 preserveAspectRatio="xMidYMid meet">
<metadata>
Created by potrace 1.15, written by Peter Selinger 2001-2017
</metadata>
<g transform="translate(0.000000,664.000000) scale(0.100000,-0.100000)"
fill="#000000" stroke="none">
<path d="M3745 6599 c-875 -3 -2068 -10 -2652 -14 l-1063 -7 0 -3238 0 -3238
123 -7 c173 -9 2338 -2 2360 9 48 23 28 113 -58 266 -92 163 -110 234 -110
435 0 184 12 243 74 370 90 183 268 306 521 361 71 16 128 19 345 19 231 -1
271 -3 363 -23 184 -40 300 -99 409 -210 145 -146 203 -372 158 -609 -8 -43
-40 -152 -71 -243 -90 -260 -86 -348 14 -393 65 -28 273 -34 1468 -41 l961 -5
7 347 c3 191 9 843 13 1450 l6 1103 54 52 c115 109 197 143 323 134 93 -7 176
-36 355 -123 139 -68 141 -69 220 -68 144 1 258 49 349 144 83 87 107 142 118
280 11 126 3 486 -13 590 -14 96 -56 173 -140 258 -159 160 -310 189 -498 93
-230 -117 -489 -144 -658 -69 -25 11 -68 41 -95 66 l-48 45 0 1138 0 1139
-622 -2 c-343 -1 -1338 -5 -2213 -9z m-205 -1109 c203 -217 312 -421 379 -710
49 -209 54 -501 12 -633 -61 -189 -196 -410 -376 -612 -39 -44 -85 -100 -102
-125 l-30 -45 5 -121 c4 -115 4 -122 -15 -128 -40 -13 -50 1 -57 79 -4 41 -13
108 -21 150 -8 42 -15 79 -15 81 0 2 -66 72 -146 156 -193 202 -290 347 -358
535 -56 158 -75 300 -57 434 40 301 203 729 349 919 31 40 90 101 130 133 41
33 85 77 99 99 l26 39 41 -75 c26 -47 76 -112 136 -176z m1042 -2530 c112 -39
187 -144 196 -273 7 -113 -15 -175 -90 -253 -92 -96 -125 -106 -368 -111 -220
-5 -245 1 -195 42 71 58 65 34 64 273 -1 119 -4 228 -8 241 -5 17 -18 27 -45
35 -46 13 -54 27 -30 51 16 15 38 17 228 12 131 -3 225 -9 248 -17z m602 10
c81 -10 112 -30 144 -91 28 -53 24 -96 -13 -144 -32 -43 -31 -46 6 -74 46 -34
69 -79 69 -134 0 -90 -53 -155 -157 -191 -52 -18 -256 -30 -343 -19 -55 7 -65
11 -65 27 0 14 10 22 32 28 18 5 38 18 45 31 14 27 23 390 11 457 -6 33 -14
46 -28 48 -70 10 -79 20 -48 54 14 16 33 18 147 18 72 -1 162 -5 200 -10z
m-2929 -240 c63 -34 92 -76 100 -145 15 -118 -18 -190 -110 -242 -41 -23 -62
-28 -120 -28 -91 0 -139 24 -180 90 -27 44 -30 57 -30 130 0 73 3 86 27 121
36 51 86 84 151 99 64 15 98 10 162 -25z m-1039 13 c12 -17 15 -17 62 0 69 24
112 22 157 -8 l37 -26 66 27 c85 34 141 30 184 -13 35 -36 44 -72 53 -213 8
-115 9 -119 40 -136 11 -6 20 -20 20 -30 0 -17 -10 -19 -108 -22 -93 -2 -108
0 -114 14 -4 11 1 22 13 30 42 29 44 34 44 112 0 152 -19 192 -92 192 -71 0
-78 -14 -78 -153 l0 -121 32 -26 c48 -41 32 -50 -88 -50 -88 0 -106 3 -111 16
-4 11 1 22 13 30 46 32 46 32 42 143 -3 59 -10 118 -18 134 -16 34 -50 43 -98
28 -67 -20 -65 -15 -57 -161 7 -124 9 -132 30 -140 23 -9 38 -33 28 -44 -8 -8
-197 -8 -217 0 -25 10 -19 32 13 48 33 18 41 55 41 196 l0 86 -35 17 c-57 27
-47 40 50 68 76 22 75 22 91 2z m1384 3 c0 -25 15 -26 69 -6 65 25 107 25 148
0 55 -33 64 -58 77 -209 6 -77 14 -141 16 -143 3 -2 14 -8 25 -14 11 -6 21
-23 23 -38 l3 -27 -118 3 c-114 3 -118 4 -121 25 -3 17 3 26 22 33 33 12 39
38 34 160 -3 93 -5 104 -27 121 -29 24 -88 24 -119 1 -20 -16 -24 -29 -28 -98
-7 -112 4 -166 39 -182 30 -14 36 -46 11 -56 -9 -3 -63 -6 -120 -6 -104 0
-105 0 -98 22 4 13 20 35 35 49 29 27 29 28 29 146 l0 118 -41 23 c-51 29 -42
44 45 71 74 24 96 25 96 7z m722 -1 c55 -12 82 -13 102 -5 15 5 32 8 37 4 25
-15 -8 -84 -41 -84 -20 0 -23 -7 -35 -82 -9 -56 -70 -113 -145 -135 -34 -10
-61 -23 -61 -28 0 -6 42 -16 92 -23 123 -18 160 -36 178 -87 31 -90 -35 -185
-155 -225 -86 -29 -177 -25 -219 9 -74 57 -85 119 -30 172 37 36 44 69 20 89
-23 19 -18 46 13 68 l27 21 -27 28 c-87 91 -68 211 43 267 61 30 98 32 201 11z
m547 -11 c34 -17 62 -41 79 -67 24 -36 27 -50 27 -121 -1 -63 -6 -90 -22 -122
-68 -130 -291 -155 -376 -43 -73 97 -56 266 33 329 78 56 177 65 259 24z"/>
<path d="M4317 2859 c-9 -69 -9 -387 -1 -417 4 -12 19 -29 35 -37 33 -17 125
-20 166 -4 104 39 159 193 119 332 -32 110 -110 167 -237 175 l-76 4 -6 -53z"/>
<path d="M5040 2828 c0 -46 -3 -93 -6 -105 -6 -21 -3 -23 32 -23 105 1 154 33
154 102 0 63 -63 108 -152 108 l-28 0 0 -82z"/>
<path d="M5040 2539 c0 -138 7 -149 96 -149 76 0 104 20 125 88 10 36 9 45 -8
78 -24 47 -71 72 -151 80 l-62 7 0 -104z"/>
<path d="M2078 2689 c-61 -23 -76 -154 -29 -246 26 -52 49 -65 108 -61 62 4
86 35 91 121 3 50 0 72 -16 103 -39 75 -95 105 -154 83z"/>
<path d="M3155 2675 c-56 -55 -12 -175 64 -175 61 0 87 125 36 175 -13 14 -36
25 -50 25 -14 0 -37 -11 -50 -25z"/>
<path d="M3153 2281 c-12 -6 -29 -24 -38 -42 -16 -30 -16 -33 3 -58 40 -55
155 -62 212 -14 37 31 42 86 9 103 -28 15 -158 22 -186 11z"/>
<path d="M3692 2685 c-74 -53 -67 -220 12 -283 65 -51 137 -32 157 41 14 53 6
138 -18 179 -37 63 -109 93 -151 63z"/>
</g>
</svg>
