<?xml version="1.0" standalone="no"?>
<!DOCTYPE svg PUBLIC "-//W3C//DTD SVG 20010904//EN"
 "http://www.w3.org/TR/2001/REC-SVG-20010904/DTD/svg10.dtd">
<svg version="1.0" xmlns="http://www.w3.org/2000/svg"
 width="643.000000pt" height="780.000000pt" viewBox="0 0 643.000000 780.000000"
 preserveAspectRatio="xMidYMid meet">
<metadata>
Created by potrace 1.15, written by Peter Selinger 2001-2017
</metadata>
<g transform="translate(0.000000,780.000000) scale(0.100000,-0.100000)"
fill="#000000" stroke="none">
<path d="M3080 7764 c-207 -14 -315 -53 -407 -144 -104 -105 -147 -228 -141
-410 l3 -115 72 -150 c39 -82 77 -172 84 -198 19 -79 7 -175 -33 -253 -64
-127 -67 -127 -793 -125 -308 1 -839 6 -1180 10 -341 5 -621 7 -623 6 -5 -5
18 -1695 28 -2010 5 -170 15 -327 21 -348 8 -28 19 -42 45 -54 47 -23 112 -9
263 58 196 87 215 91 381 87 142 -3 147 -4 213 -36 189 -94 312 -253 402 -526
50 -149 65 -239 65 -378 0 -217 -73 -467 -182 -626 -121 -176 -317 -260 -544
-232 -98 12 -172 30 -342 83 -199 63 -266 61 -339 -6 l-45 -42 6 -295 c3 -162
9 -682 12 -1155 3 -473 7 -861 8 -861 0 -1 1419 -4 3152 -7 l3151 -6 7 272
c40 1670 41 1809 10 1868 -18 37 -38 37 -191 4 -132 -29 -194 -54 -293 -120
-106 -70 -131 -78 -235 -72 -54 3 -113 13 -149 25 -275 99 -478 429 -505 825
-8 116 -1 315 14 402 27 154 78 249 194 366 139 138 264 194 431 193 107 -1
186 -22 399 -103 169 -64 194 -69 225 -38 97 97 122 1003 70 2510 l-7 197
-1157 0 -1157 0 -114 113 c-110 107 -179 205 -179 251 0 8 29 71 65 138 75
143 95 216 95 348 0 121 -17 187 -81 311 -75 147 -138 203 -257 228 -56 12
-365 22 -462 15z m305 -2258 c311 -100 531 -384 585 -755 7 -45 10 -84 7 -87
-3 -3 -40 5 -82 17 -87 26 -81 17 -115 159 -79 335 -295 530 -585 530 -211 0
-364 -99 -501 -325 -110 -181 -154 -362 -154 -635 0 -209 42 -402 125 -577
l44 -93 46 0 c95 0 175 -59 201 -146 38 -132 -57 -256 -196 -256 -128 0 -224
126 -192 252 9 38 7 46 -47 153 -60 117 -110 258 -137 387 -22 106 -30 338
-15 452 66 493 314 844 665 939 98 27 240 21 351 -15z m-277 -842 c20 -8 48
-25 62 -38 23 -21 37 -24 155 -29 379 -18 684 -140 957 -384 190 -169 302
-337 360 -540 33 -114 33 -320 -1 -413 -77 -218 -258 -380 -508 -457 -78 -23
-105 -26 -238 -27 -134 -1 -161 2 -248 27 -102 28 -197 65 -197 76 0 4 26 33
58 64 l59 58 88 -26 c126 -36 253 -49 358 -36 267 32 467 229 493 486 19 185
-103 448 -288 621 -166 155 -408 286 -633 343 -90 22 -295 46 -329 37 -13 -3
-36 -26 -52 -52 -59 -94 -174 -125 -266 -71 -55 32 -76 56 -94 104 -20 57 -17
104 12 161 48 97 154 138 252 96z m-885 -571 c6 -29 1 -37 -44 -80 -112 -106
-209 -256 -245 -378 -24 -84 -22 -229 5 -315 61 -193 205 -324 403 -366 112
-24 335 -14 453 20 106 31 297 123 410 198 114 76 289 252 364 367 34 51 61
99 61 106 0 7 -11 37 -25 67 -26 57 -32 118 -14 165 25 67 118 132 190 133 52
0 136 -45 166 -91 73 -110 34 -238 -89 -298 -54 -26 -67 -38 -92 -83 -182
-331 -478 -576 -845 -698 -168 -56 -278 -73 -436 -67 -325 13 -566 163 -669
417 -106 261 -57 568 130 810 44 57 157 170 209 209 l30 23 16 -54 c8 -29 18
-68 22 -85z m1175 -1849 l22 -6 0 -424 0 -424 -46 0 c-55 0 -82 13 -94 46 -11
28 -32 31 -51 7 -23 -27 -99 -55 -149 -55 -80 0 -143 46 -183 132 -17 37 -21
66 -21 160 -1 106 1 119 26 165 67 127 196 180 303 125 22 -11 43 -20 47 -20
4 0 8 68 8 150 l0 150 58 0 c31 0 67 -3 80 -6z m-1392 -35 c75 -14 152 -65
181 -119 20 -38 24 -56 21 -115 -5 -104 -43 -163 -146 -225 -16 -9 -15 -11 3
-27 39 -33 220 -319 207 -326 -18 -9 -149 -7 -174 4 -20 8 -50 49 -114 155
l-86 144 -49 0 -49 0 0 -155 0 -156 -92 3 -93 3 -3 418 -2 418 172 -6 c95 -4
196 -11 224 -16z m628 -233 c62 -19 109 -56 143 -113 22 -38 27 -59 27 -117 1
-87 9 -84 -211 -85 -157 -1 -163 -2 -163 -21 0 -39 29 -90 62 -110 40 -24 115
-26 173 -4 71 28 78 27 110 -6 37 -39 29 -54 -50 -95 -49 -25 -72 -31 -147
-34 -83 -3 -94 -1 -153 28 -160 79 -212 295 -109 451 63 96 200 141 318 106z
m1066 -205 c0 -196 1 -210 21 -235 26 -33 82 -35 139 -6 l40 20 0 215 0 215
80 0 80 0 0 -296 0 -296 -62 4 c-34 3 -63 9 -65 15 -2 6 -9 18 -16 27 -11 16
-18 14 -76 -16 -123 -63 -227 -34 -287 82 -15 30 -18 69 -22 258 l-5 222 87 0
86 0 0 -209z m616 187 c11 -13 36 -48 54 -78 19 -30 42 -65 51 -78 l18 -23 37
68 c20 37 48 83 61 101 23 31 26 32 99 32 40 0 74 -3 74 -7 0 -4 -39 -65 -86
-135 -49 -73 -84 -134 -81 -142 3 -8 44 -76 91 -151 48 -75 83 -141 80 -147
-9 -13 -148 -5 -166 10 -7 6 -38 51 -68 101 -30 50 -59 89 -65 87 -5 -1 -31
-37 -56 -80 -75 -125 -76 -126 -165 -126 -57 0 -73 3 -68 13 4 6 31 48 59 92
28 44 68 108 89 143 l38 62 -74 113 c-41 61 -82 124 -92 140 l-18 27 84 0 c75
0 87 -3 104 -22z"/>
<path d="M3085 1844 c-31 -34 -45 -82 -45 -159 0 -76 15 -129 43 -156 28 -27
101 -22 146 10 l31 22 0 132 c0 73 -4 137 -8 143 -14 21 -51 34 -97 34 -37 0
-51 -5 -70 -26z"/>
<path d="M1800 1960 l0 -130 65 0 c109 0 155 31 169 115 15 90 -49 145 -166
145 l-68 0 0 -130z"/>
<path d="M2501 1867 c-30 -15 -58 -53 -67 -89 l-6 -28 116 0 c132 0 139 4 110
65 -27 58 -96 81 -153 52z"/>
</g>
</svg>
