<?xml version="1.0" standalone="no"?>
<!DOCTYPE svg PUBLIC "-//W3C//DTD SVG 20010904//EN"
 "http://www.w3.org/TR/2001/REC-SVG-20010904/DTD/svg10.dtd">
<svg version="1.0" xmlns="http://www.w3.org/2000/svg"
 width="1466.000000pt" height="774.000000pt" viewBox="0 0 1466.000000 774.000000"
 preserveAspectRatio="xMidYMid meet">
<metadata>
Created by potrace 1.15, written by Peter Selinger 2001-2017
</metadata>
<g transform="translate(0.000000,774.000000) scale(0.100000,-0.100000)"
fill="#000000" stroke="none">
<path d="M3049 7729 c-270 -39 -474 -142 -564 -284 -48 -76 -67 -144 -67 -244
0 -128 47 -285 154 -511 62 -131 98 -224 98 -254 0 -38 -42 -87 -100 -117
l-55 -29 -1257 0 -1258 0 0 -3145 0 -3145 6585 0 6584 0 3 1183 c3 1099 4
1186 21 1234 26 76 73 133 139 167 49 24 68 28 137 28 l80 0 85 -56 c148 -99
271 -137 445 -137 186 -1 301 39 402 140 126 126 179 308 179 615 0 204 -10
267 -56 361 -129 265 -472 400 -734 290 -124 -51 -169 -65 -237 -71 -113 -11
-264 22 -385 83 l-48 23 0 1215 0 1216 -1247 -3 c-1145 -3 -1251 -4 -1279 -20
-31 -17 -54 -54 -54 -89 0 -40 41 -135 96 -221 105 -166 139 -300 110 -438
-27 -127 -75 -211 -185 -320 -290 -286 -661 -341 -1105 -163 -147 59 -205 93
-263 157 -128 139 -181 352 -139 553 21 96 40 144 76 194 63 87 79 173 40 221
-25 33 -99 64 -180 77 -43 7 -906 12 -2550 14 -2285 4 -2489 6 -2530 21 -56
21 -78 41 -101 91 -39 85 -21 188 93 533 70 212 72 219 72 322 1 119 -16 185
-66 258 -90 131 -233 210 -447 247 -91 16 -394 19 -492 4z m5684 -3607 c169
-47 293 -142 336 -257 25 -68 28 -178 6 -253 -39 -132 -177 -234 -347 -258
-27 -3 -48 -8 -48 -10 0 -4 133 -185 382 -521 l98 -133 -149 0 -149 0 -97 138
c-54 75 -154 217 -224 315 l-126 177 -332 0 -333 0 0 -315 0 -315 -140 0 -140
0 0 731 0 730 593 -3 c571 -4 595 -5 670 -26z m-6496 -434 c125 -249 255 -509
288 -577 44 -89 65 -120 71 -110 5 7 136 265 290 574 l282 560 191 3 191 2 0
-730 0 -730 -140 0 -140 0 0 562 c0 321 -4 558 -9 553 -5 -6 -77 -145 -161
-310 -84 -165 -176 -345 -205 -400 -29 -55 -87 -169 -129 -252 l-77 -153 -98
0 -99 0 -282 553 c-155 303 -286 556 -291 562 -5 5 -9 -224 -9 -553 l0 -562
-140 0 -140 0 0 730 0 730 190 0 190 0 227 -452z m3933 372 l0 -80 -545 0
-545 0 0 -230 0 -230 510 0 510 0 0 -75 0 -75 -510 0 -510 0 0 -270 0 -270
575 0 575 0 0 -75 0 -75 -715 0 -715 0 0 730 0 730 685 0 685 0 0 -80z m4496
-57 c66 -75 153 -176 194 -223 41 -48 125 -145 186 -216 62 -71 201 -232 310
-359 l199 -230 3 583 2 582 140 0 140 0 0 -730 0 -730 -154 0 -153 0 -75 88
c-41 48 -121 141 -178 207 -58 66 -161 185 -229 265 -69 80 -198 228 -286 330
-88 102 -176 204 -195 227 -19 24 -38 43 -42 43 -5 0 -8 -261 -8 -580 l0 -580
-135 0 -135 0 0 730 0 730 149 0 149 0 118 -137z m-8466 -1813 c124 -32 120
-29 120 -109 l0 -69 -67 34 c-91 46 -180 67 -283 67 -104 0 -160 -14 -205 -54
-78 -69 -65 -187 25 -234 15 -8 90 -26 167 -40 182 -33 262 -58 315 -98 144
-109 105 -332 -74 -423 -88 -45 -160 -57 -293 -51 -87 4 -144 13 -209 32 -131
38 -126 33 -126 121 0 57 3 73 13 68 6 -5 32 -21 57 -36 83 -53 191 -81 315
-82 103 -1 114 1 170 29 79 40 100 70 100 145 -1 104 -46 132 -270 169 -152
26 -208 43 -267 80 -84 53 -126 167 -99 267 23 86 141 179 261 204 72 15 254
4 350 -20z m7064 5 c32 -9 82 -27 112 -40 l54 -24 0 -70 c0 -39 -2 -71 -4 -71
-2 0 -30 18 -62 39 -92 61 -171 84 -289 85 -94 1 -105 -1 -167 -32 -75 -37
-120 -83 -155 -158 -69 -151 -51 -366 41 -487 113 -149 375 -166 575 -37 l62
40 -3 -72 -3 -73 -66 -26 c-144 -58 -287 -73 -422 -44 -226 48 -357 226 -357
485 0 261 134 443 364 496 75 17 237 12 320 -11z m-4514 -45 l0 -50 -185 0
-185 0 0 -435 0 -435 -65 0 -65 0 0 435 0 435 -185 0 -185 0 0 50 0 50 435 0
435 0 0 -50z m1964 -67 c25 -65 106 -275 180 -468 73 -192 137 -358 141 -367
6 -16 0 -18 -61 -18 l-69 0 -49 135 -49 135 -230 -2 -229 -3 -49 -129 c-26
-71 -50 -130 -52 -133 -3 -2 -31 -3 -64 -1 l-59 3 103 270 c57 149 140 366
185 483 l81 212 88 0 87 0 46 -117z m4476 -138 c0 -148 4 -255 9 -255 5 0 11
4 13 9 2 5 112 120 246 255 l243 246 72 0 72 0 -223 -223 c-122 -122 -222
-227 -222 -232 0 -10 71 -87 329 -364 64 -68 120 -129 124 -137 7 -11 -6 -14
-70 -14 l-78 1 -199 214 c-110 118 -204 215 -210 215 -6 0 -32 -21 -58 -47
l-48 -47 0 -168 0 -168 -65 0 -65 0 0 485 0 485 65 0 65 0 0 -255z"/>
<path d="M7750 3736 l0 -256 413 0 c453 0 476 2 554 59 53 38 76 89 81 178 3
59 0 80 -18 117 -24 51 -75 96 -147 129 -47 21 -58 22 -465 25 l-418 3 0 -255z"/>
<path d="M6485 1862 c-49 -130 -90 -243 -93 -249 -3 -10 37 -13 182 -13 140 0
186 3 186 12 0 15 -170 470 -179 480 -4 5 -47 -99 -96 -230z"/>
</g>
</svg>
