<?xml version="1.0" standalone="no"?>
<!DOCTYPE svg PUBLIC "-//W3C//DTD SVG 20010904//EN"
 "http://www.w3.org/TR/2001/REC-SVG-20010904/DTD/svg10.dtd">
<svg version="1.0" xmlns="http://www.w3.org/2000/svg"
 width="1268.000000pt" height="868.000000pt" viewBox="0 0 1268.000000 868.000000"
 preserveAspectRatio="xMidYMid meet">
<metadata>
Created by potrace 1.15, written by Peter Selinger 2001-2017
</metadata>
<g transform="translate(0.000000,868.000000) scale(0.100000,-0.100000)"
fill="#000000" stroke="none">
<path d="M1964 8438 c3 -134 6 -826 7 -1538 1 -1415 3 -1344 -57 -1431 -19
-28 -48 -50 -100 -76 -67 -33 -79 -35 -136 -30 -78 6 -321 66 -488 119 -165
52 -251 68 -374 68 -192 0 -366 -69 -507 -202 -76 -72 -161 -231 -243 -460
-61 -170 -69 -232 -63 -473 7 -301 65 -580 158 -772 47 -94 81 -133 224 -252
115 -95 222 -152 345 -182 74 -19 104 -21 235 -16 93 3 167 11 195 20 135 45
268 99 311 126 27 17 70 45 97 61 63 40 171 63 220 47 47 -16 64 -47 101 -182
28 -106 30 -123 41 -440 6 -181 14 -885 17 -1562 l6 -1233 76 0 c42 0 756 -7
1586 -15 l1510 -15 33 37 c52 59 92 125 92 151 0 13 -36 115 -79 226 -122 311
-161 455 -161 600 0 305 240 695 504 820 70 33 226 71 386 93 175 23 528 24
665 0 223 -39 365 -89 478 -171 77 -54 215 -197 251 -258 67 -115 122 -458
113 -708 -5 -172 -25 -241 -99 -359 -85 -136 -90 -151 -73 -207 42 -140 88
-163 370 -183 427 -32 638 -36 1727 -36 614 0 1119 2 1121 5 3 3 10 405 16
895 20 1502 31 2136 41 2223 10 97 39 157 90 186 29 17 57 21 167 24 160 5
210 -5 479 -94 212 -70 291 -84 489 -84 110 0 128 3 218 34 148 51 322 157
447 273 70 65 101 124 191 365 83 221 92 287 86 573 -8 343 -31 445 -148 639
-88 148 -203 299 -282 373 -59 55 -73 63 -139 78 -110 25 -389 64 -509 72
l-106 6 -134 -85 c-74 -47 -179 -108 -234 -137 -55 -29 -147 -85 -205 -127
-122 -87 -176 -115 -234 -121 -38 -5 -45 -2 -69 26 -14 17 -31 48 -37 69 -27
89 -48 1094 -52 2454 l-3 1028 -4284 0 -4284 0 7 -242z m3666 -478 c144 -49
324 -158 499 -303 58 -48 107 -87 110 -87 3 0 56 41 116 91 278 229 483 331
670 332 115 0 176 -24 241 -96 51 -57 107 -167 124 -247 30 -139 23 -425 -17
-643 -9 -51 -12 -92 -7 -97 5 -5 59 -27 119 -50 251 -95 420 -193 539 -314 83
-84 120 -148 135 -232 23 -125 -15 -219 -139 -345 -134 -136 -291 -232 -532
-323 l-113 -43 1 -34 c0 -19 11 -101 24 -184 43 -283 16 -527 -75 -690 -37
-65 -92 -124 -141 -148 -50 -25 -143 -36 -222 -27 -184 24 -367 124 -630 348
-41 34 -80 62 -87 62 -6 0 -59 -39 -116 -87 -257 -215 -492 -327 -685 -327
-72 0 -90 4 -148 33 -103 50 -175 155 -213 308 -26 104 -23 407 5 575 12 70
22 136 22 147 0 14 -20 25 -92 50 -121 42 -294 125 -388 186 -41 27 -114 88
-162 135 -108 107 -149 184 -156 295 -5 85 5 122 58 203 106 165 312 303 613
413 66 23 121 48 124 55 3 7 -5 77 -18 156 -29 182 -32 462 -6 577 20 91 63
183 110 236 93 108 257 136 437 75z m-1446 -4000 c126 -9 158 -14 207 -36 73
-33 130 -94 172 -182 30 -63 32 -73 31 -182 0 -94 -4 -123 -21 -161 -28 -63
-122 -155 -214 -210 -110 -66 -113 -51 75 -379 111 -192 125 -225 108 -242
-31 -31 -80 23 -275 302 -198 284 -176 263 -283 268 -49 2 -114 0 -144 -5 -65
-10 -62 0 -85 -248 -8 -93 -20 -200 -26 -237 -10 -63 -31 -100 -46 -84 -17 17
-23 169 -29 771 l-7 640 194 -3 c107 -1 261 -7 343 -12z m4293 -153 c7 -20 15
-67 19 -104 8 -79 22 -99 78 -114 62 -15 93 -29 111 -48 14 -17 14 -19 -1 -32
-9 -8 -51 -25 -93 -39 l-76 -25 -8 -55 c-4 -30 -6 -192 -5 -360 3 -297 4 -306
26 -342 26 -41 32 -45 127 -67 80 -19 90 -36 35 -63 -64 -33 -156 -18 -232 37
l-46 34 -6 83 c-3 46 -13 224 -21 397 -9 172 -20 322 -25 332 -6 9 -33 26 -62
37 -68 25 -82 46 -48 71 13 11 41 25 62 32 21 7 43 18 48 24 6 7 19 59 30 115
11 56 25 109 31 117 20 23 43 10 56 -30z m-1857 -233 c42 -7 126 -47 159 -77
13 -12 39 -45 57 -74 l34 -52 -1 -363 c-1 -200 -4 -376 -8 -392 -3 -16 -14
-34 -23 -40 -14 -9 -25 -4 -57 28 -27 26 -46 37 -58 33 -10 -3 -67 -24 -128
-48 -93 -36 -121 -42 -185 -43 -136 -1 -240 58 -298 168 -23 44 -27 63 -27
141 0 78 4 97 28 147 47 95 137 147 271 155 91 6 157 -8 275 -57 41 -16 82
-30 92 -30 28 0 33 40 21 153 -17 158 -57 220 -172 268 -65 26 -181 17 -300
-24 -150 -53 -184 -49 -113 13 101 89 251 121 433 94z m1260 -15 c72 -34 146
-100 137 -122 -10 -25 -36 -21 -129 20 -75 33 -92 37 -173 37 -80 1 -97 -2
-150 -28 -73 -36 -153 -114 -191 -187 -28 -53 -29 -57 -29 -214 0 -152 1 -163
27 -217 53 -114 148 -188 264 -206 75 -12 144 -2 266 37 137 43 159 32 84 -44
-63 -63 -151 -89 -306 -89 -107 -1 -119 1 -169 27 -115 59 -220 177 -264 294
-17 48 -21 80 -21 183 -1 178 28 267 119 368 64 71 138 123 215 150 93 32 240
28 320 -9z m-2376 -4 c57 -21 165 -117 203 -182 36 -62 62 -151 69 -243 l7
-80 -49 0 c-136 0 -691 -31 -724 -40 -62 -17 -65 -71 -9 -183 39 -76 105 -142
177 -175 51 -24 68 -27 167 -27 95 0 124 5 218 33 127 39 148 39 119 2 -47
-60 -217 -120 -336 -120 -133 0 -259 55 -356 155 -168 176 -194 444 -65 660
62 103 121 155 234 202 51 22 67 23 176 20 80 -3 136 -10 169 -22z"/>
<path d="M5381 7839 c-48 -10 -81 -38 -118 -99 -49 -81 -56 -135 -50 -380 5
-200 24 -362 46 -399 6 -9 41 -6 157 13 122 21 362 56 379 56 2 0 32 37 66 83
35 45 112 142 173 216 l109 134 -34 29 c-225 190 -379 289 -514 331 -59 18
-166 26 -214 16z"/>
<path d="M6900 7831 c-76 -24 -186 -81 -284 -146 -89 -59 -276 -210 -276 -223
0 -4 50 -68 111 -142 61 -74 137 -170 167 -212 l56 -77 56 -7 c30 -3 149 -22
265 -40 186 -31 211 -33 221 -19 27 37 59 369 51 526 -9 167 -60 291 -141 340
-40 25 -150 25 -226 0z"/>
<path d="M6137 7238 c-109 -135 -141 -177 -135 -183 3 -3 112 -4 243 -3 l237
3 -46 62 c-69 94 -185 223 -201 223 -8 0 -52 -46 -98 -102z"/>
<path d="M5948 6891 c-42 -3 -78 -8 -81 -11 -24 -29 -157 -257 -245 -420
l-111 -205 71 -135 c132 -250 273 -485 298 -496 23 -10 504 -18 623 -9 l106 7
64 106 c124 207 287 508 287 530 0 15 -165 316 -261 478 l-91 151 -90 7 c-106
7 -458 5 -570 -3z m428 -331 c70 -34 129 -94 165 -168 33 -66 34 -196 2 -265
-31 -67 -113 -150 -175 -177 -189 -81 -401 30 -454 239 -27 110 5 220 89 305
108 108 241 131 373 66z"/>
<path d="M5457 6835 c-112 -23 -147 -36 -147 -56 0 -15 111 -323 120 -332 4
-5 13 -3 19 5 13 15 231 396 231 403 0 12 -115 1 -223 -20z"/>
<path d="M6800 6849 c0 -5 28 -58 63 -117 35 -59 82 -141 105 -183 51 -93 69
-111 86 -87 22 30 118 330 109 339 -10 10 -288 59 -334 59 -16 0 -29 -5 -29
-11z"/>
<path d="M5035 6726 c-351 -119 -586 -306 -585 -465 1 -66 31 -123 107 -203
108 -112 252 -200 445 -272 102 -38 149 -44 165 -23 6 6 23 50 38 97 16 47 55
150 87 230 32 79 58 152 58 161 0 19 -151 413 -181 470 -11 22 -23 39 -27 39
-4 0 -52 -16 -107 -34z"/>
<path d="M7311 6743 c-5 -11 -32 -80 -60 -154 -27 -74 -68 -178 -90 -232 l-40
-97 100 -247 c54 -136 103 -251 109 -257 22 -22 313 102 454 194 189 124 270
252 232 367 -45 134 -242 279 -541 396 -124 48 -151 53 -164 30z"/>
<path d="M5387 5948 c-66 -180 -82 -237 -71 -247 9 -10 297 -61 340 -61 18 0
22 4 17 18 -16 42 -221 406 -230 409 -6 2 -31 -51 -56 -119z"/>
<path d="M6980 5983 c-24 -43 -70 -125 -102 -182 -33 -57 -63 -114 -68 -127
-9 -23 -8 -24 39 -24 51 0 225 32 289 53 45 15 45 22 -4 151 -53 138 -85 206
-99 206 -6 0 -31 -35 -55 -77z"/>
<path d="M7085 5539 c-49 -10 -162 -28 -250 -40 l-160 -22 -65 -89 c-35 -49
-106 -142 -157 -206 -51 -64 -93 -124 -93 -133 0 -33 197 -198 325 -273 125
-73 226 -108 322 -114 75 -4 86 -2 126 21 55 32 97 109 123 222 31 135 15 522
-26 631 -11 28 -20 29 -145 3z"/>
<path d="M5262 5538 c-55 -68 -74 -549 -28 -704 59 -194 232 -225 501 -89 149
75 395 262 395 300 0 8 -55 83 -123 168 -68 84 -141 178 -163 209 l-39 55
-113 12 c-62 7 -179 23 -260 37 -173 28 -157 27 -170 12z"/>
<path d="M6000 5451 c0 -11 197 -257 228 -284 19 -17 21 -15 114 100 134 167
142 180 122 187 -26 10 -464 7 -464 -3z"/>
<path d="M3804 3870 c-12 -4 -25 -17 -29 -27 -10 -23 -19 -491 -11 -538 4 -21
16 -40 29 -47 31 -17 253 -22 377 -9 65 7 121 19 147 32 86 42 173 179 173
274 0 72 -15 117 -64 188 -61 89 -109 116 -227 127 -117 12 -367 12 -395 0z"/>
<path d="M6385 3111 c-79 -20 -157 -80 -182 -140 -22 -51 -22 -206 0 -247 22
-43 87 -99 133 -115 47 -17 202 -17 260 -1 59 17 144 81 167 126 14 25 22 66
25 117 4 71 2 82 -22 123 -30 51 -89 96 -156 119 -55 18 -184 28 -225 18z"/>
<path d="M5229 3507 c-109 -31 -187 -102 -246 -224 -46 -95 -44 -143 7 -160
72 -25 653 -9 686 18 8 7 14 31 14 58 0 97 -98 229 -212 285 -67 33 -177 43
-249 23z"/>
</g>
</svg>
