<?xml version="1.0" standalone="no"?>
<!DOCTYPE svg PUBLIC "-//W3C//DTD SVG 20010904//EN"
 "http://www.w3.org/TR/2001/REC-SVG-20010904/DTD/svg10.dtd">
<svg version="1.0" xmlns="http://www.w3.org/2000/svg"
 width="876.000000pt" height="1053.000000pt" viewBox="0 0 876.000000 1053.000000"
 preserveAspectRatio="xMidYMid meet">
<metadata>
Created by potrace 1.15, written by Peter Selinger 2001-2017
</metadata>
<g transform="translate(0.000000,1053.000000) scale(0.100000,-0.100000)"
fill="#000000" stroke="none">
<path d="M47 10343 c-33 -936 -47 -1595 -46 -2158 0 -258 3 -488 7 -509 5 -25
16 -46 34 -59 25 -19 32 -19 132 -8 178 20 330 74 526 186 137 79 188 95 300
95 461 0 834 -461 910 -1125 13 -116 13 -355 0 -484 -14 -128 -39 -211 -102
-333 -127 -243 -324 -413 -568 -489 -62 -20 -96 -24 -195 -23 -147 1 -256 28
-545 134 -107 39 -217 74 -243 77 -43 5 -51 3 -78 -23 -37 -36 -64 -118 -92
-289 -21 -128 -21 -158 -26 -1770 -3 -902 -4 -1666 -3 -1698 l4 -57 1587 0
1587 1 99 -34 c55 -19 112 -39 126 -45 35 -14 67 -56 75 -97 9 -51 -15 -185
-42 -226 -41 -65 -115 -232 -129 -294 -9 -34 -15 -112 -15 -181 0 -192 46
-330 197 -584 128 -215 194 -277 344 -321 66 -19 104 -22 353 -26 402 -7 587
16 746 95 65 32 98 60 256 217 177 178 182 183 212 261 34 89 67 239 77 354
15 181 -39 315 -243 600 -41 57 -68 191 -51 253 19 71 30 87 73 99 47 14 1375
14 2661 0 424 -5 772 -7 774 -5 10 8 -51 2592 -69 2933 -15 290 -29 359 -81
385 -63 33 -132 15 -434 -115 l-190 -81 -240 3 -240 3 -84 43 c-271 138 -430
339 -550 700 -122 365 -117 724 15 1065 106 276 260 469 449 563 61 30 85 36
190 45 218 19 392 -2 641 -80 212 -67 275 -81 365 -81 82 0 141 22 208 79 l33
29 -8 1566 c-7 1262 -12 1568 -22 1578 -11 11 -808 13 -4346 16 l-4333 2 -6
-187z m4699 -1115 c4 -6 13 -52 20 -102 17 -114 52 -187 112 -230 38 -27 54
-31 121 -34 l78 -4 117 61 c64 34 121 61 125 61 4 0 26 -16 48 -35 l41 -35
-56 -93 c-79 -132 -96 -200 -71 -290 25 -91 108 -145 272 -177 68 -14 97 -38
97 -80 0 -43 -37 -76 -106 -95 -124 -34 -160 -47 -196 -72 -53 -36 -70 -79
-71 -182 l-2 -86 58 -93 c31 -51 57 -101 57 -111 0 -25 -47 -81 -68 -81 -10 0
-68 26 -131 57 -107 54 -118 58 -185 58 -57 0 -79 -5 -114 -25 -56 -32 -79
-70 -127 -215 -34 -101 -44 -122 -67 -133 -20 -9 -32 -10 -52 -1 -37 17 -54
48 -72 135 -19 97 -41 140 -93 187 -90 81 -199 76 -358 -18 -50 -30 -96 -55
-101 -55 -12 0 -72 67 -72 81 0 6 27 63 61 127 73 142 79 186 34 277 -32 66
-84 105 -174 130 -132 37 -163 49 -177 69 -39 56 6 104 130 135 102 25 151 48
187 88 42 44 59 87 59 146 0 68 -16 113 -75 217 -44 75 -46 83 -35 111 26 62
66 64 174 5 123 -67 176 -82 241 -67 110 25 170 99 200 251 27 134 24 130 99
130 38 0 68 -5 72 -12z m353 -1878 c24 -12 59 -96 77 -183 19 -88 54 -160 102
-210 53 -56 92 -70 197 -71 89 -1 91 0 170 43 174 97 206 111 226 101 34 -19
89 -83 89 -104 0 -12 -21 -52 -46 -91 -63 -92 -105 -187 -111 -251 -11 -100
51 -229 127 -266 19 -9 78 -29 130 -44 52 -14 118 -33 147 -41 45 -12 53 -18
63 -49 16 -47 5 -121 -20 -134 -11 -6 -67 -22 -126 -35 -127 -30 -203 -64
-251 -113 -53 -52 -67 -94 -66 -191 0 -90 -6 -74 119 -308 l39 -72 -35 -36
c-69 -72 -73 -72 -191 -5 -130 75 -187 94 -269 94 -89 0 -160 -26 -204 -74
-34 -38 -55 -93 -111 -294 -21 -77 -51 -106 -108 -106 -66 0 -86 30 -127 189
-41 162 -101 243 -204 277 -102 34 -197 8 -400 -110 -55 -32 -62 -34 -85 -21
-14 7 -44 32 -65 54 l-39 40 67 111 c108 176 128 262 86 373 -36 97 -102 140
-288 189 -120 31 -152 43 -164 62 -11 16 -10 104 1 125 13 24 73 47 159 60 92
14 173 52 234 109 60 56 82 111 76 195 -4 65 -28 122 -124 299 -45 81 -42 100
25 150 l49 37 107 -64 c138 -83 198 -105 283 -105 76 0 131 21 175 65 52 53
64 79 129 295 27 90 53 120 103 120 20 0 44 -4 54 -10z m-1957 -137 c9 -10 36
-61 61 -113 54 -110 78 -132 154 -138 47 -4 65 0 133 32 89 42 133 45 138 8 2
-12 -11 -59 -28 -104 -54 -139 -32 -234 63 -275 85 -37 141 -68 151 -86 15
-26 -27 -61 -101 -84 -82 -26 -129 -73 -137 -138 -7 -56 9 -130 45 -213 21
-48 22 -54 7 -68 -15 -15 -25 -14 -121 20 -119 41 -177 45 -224 16 -42 -25
-60 -54 -92 -147 -47 -138 -74 -130 -155 49 -43 96 -66 113 -156 112 -50 0
-84 -8 -147 -33 -45 -19 -89 -31 -98 -28 -23 9 -18 47 15 129 42 106 46 146
22 201 -21 48 -69 83 -147 107 -139 43 -141 77 -6 131 178 72 206 142 127 317
-60 133 -35 156 102 93 102 -47 145 -51 210 -20 49 24 75 60 97 134 16 54 49
115 63 115 5 0 16 -8 24 -17z m-1022 -2622 c-18 -5 -2 -9 53 -13 98 -6 240 2
212 13 -12 5 9 8 55 8 41 0 84 -4 94 -8 19 -7 19 -8 0 -15 -10 -4 -182 -10
-381 -13 l-363 -6 0 -252 0 -252 338 -6 c185 -3 348 -9 362 -13 l25 -8 -25 -7
c-14 -4 -177 -7 -362 -8 l-338 -1 0 -285 0 -285 398 0 397 0 111 153 c108 148
184 260 184 272 0 4 -42 61 -93 128 -114 148 -192 265 -184 274 11 10 35 -16
125 -132 121 -157 172 -215 186 -215 16 0 95 81 213 220 90 106 120 136 127
129 3 -2 -63 -96 -145 -207 -82 -112 -149 -207 -149 -210 0 -4 64 -92 141
-197 78 -104 147 -203 156 -218 14 -27 13 -28 -5 -18 -19 10 -71 70 -242 279
-52 64 -81 91 -94 89 -16 -2 -126 -134 -301 -361 l-20 -26 -417 7 -418 6 0
241 c0 133 -3 400 -7 594 l-6 352 199 -1 c109 -1 188 -4 174 -8z m1763 -334
c73 -33 155 -116 193 -194 28 -57 29 -62 29 -223 l0 -165 -33 -67 c-41 -85
-107 -152 -180 -186 -50 -23 -70 -27 -157 -27 -118 0 -158 15 -249 95 -32 28
-63 50 -70 50 -17 0 -26 -82 -27 -254 -1 -72 -5 -144 -9 -161 l-7 -30 -8 30
c-11 38 -13 1060 -2 1098 11 41 27 32 27 -15 0 -50 9 -88 20 -88 5 0 28 15 52
34 78 62 142 103 188 120 66 24 161 17 233 -17z m746 24 c17 -11 2 -20 -93
-51 -80 -26 -131 -68 -168 -137 -37 -68 -46 -131 -53 -353 -6 -227 -13 -310
-26 -310 -12 0 -12 800 0 819 12 18 17 5 26 -56 l7 -53 56 46 c97 79 209 121
251 95z m559 -26 c131 -59 217 -195 245 -387 l6 -38 -366 0 -366 0 6 -74 c13
-150 75 -250 188 -301 56 -25 70 -27 153 -23 150 7 235 62 298 193 33 71 65
90 53 33 -18 -83 -109 -196 -191 -238 -44 -23 -61 -25 -169 -25 -111 0 -124 2
-177 28 -172 84 -246 326 -177 580 18 66 89 193 89 158 0 -6 9 -11 20 -11 15
0 22 8 26 29 8 41 30 58 110 87 88 32 165 28 252 -11z m791 17 c26 -6 40 -17
55 -45 23 -40 61 -72 76 -62 12 8 60 -87 60 -121 0 -42 -22 -24 -56 47 -39 81
-88 125 -147 134 -81 12 -238 1 -280 -19 -57 -28 -81 -69 -82 -137 0 -94 33
-118 274 -201 234 -79 293 -120 308 -211 7 -45 -22 -148 -41 -141 -18 7 -76
-43 -76 -66 0 -48 -220 -79 -331 -47 -120 35 -197 116 -207 217 -6 69 13 71
38 3 34 -92 62 -128 126 -159 75 -37 210 -45 300 -19 129 37 192 171 122 260
-29 37 -79 59 -277 127 -97 32 -192 70 -212 83 -74 48 -92 182 -35 263 30 44
104 88 168 102 43 9 154 5 217 -8z m798 -3 c23 -7 39 -23 55 -52 14 -26 36
-48 55 -56 19 -8 39 -28 48 -47 15 -33 21 -109 7 -100 -4 2 -25 39 -46 81 -47
93 -85 122 -179 135 -80 12 -207 -3 -250 -27 -54 -32 -72 -67 -72 -140 0 -97
23 -115 251 -189 254 -84 312 -124 321 -221 11 -106 -38 -185 -142 -235 -52
-24 -72 -28 -151 -28 -122 0 -190 14 -239 49 -75 54 -134 166 -119 226 8 33
16 25 43 -52 29 -77 78 -135 133 -158 55 -22 187 -30 263 -16 112 21 174 89
175 193 0 89 -42 117 -305 203 -194 63 -218 75 -251 125 -66 99 -28 216 93
287 69 40 216 50 310 22z"/>
<path d="M4515 8723 c-127 -46 -232 -138 -286 -250 -29 -59 -34 -81 -37 -168
-6 -140 10 -221 60 -295 48 -72 135 -150 206 -185 115 -57 310 -57 422 0 74
38 204 165 237 234 27 53 28 63 28 201 0 128 -3 151 -22 193 -53 113 -176 231
-276 263 -81 25 -269 29 -332 7z"/>
<path d="M4925 6725 c-136 -30 -205 -69 -302 -167 -72 -74 -125 -155 -148
-225 -14 -42 -16 -83 -13 -220 3 -168 3 -168 36 -235 48 -94 116 -175 200
-235 100 -72 164 -93 292 -100 212 -11 333 26 454 138 92 85 149 164 178 246
20 59 23 87 23 218 0 133 -3 156 -23 203 -118 281 -414 440 -697 377z"/>
<path d="M2997 6866 c-181 -67 -276 -286 -205 -473 29 -77 100 -152 181 -189
83 -39 201 -40 292 -4 80 31 173 123 199 198 25 73 19 229 -11 287 -26 51
-116 136 -174 166 -56 29 -222 38 -282 15z"/>
<path d="M3592 4204 c-84 -42 -148 -131 -172 -241 -25 -111 -8 -279 37 -367
26 -50 97 -118 148 -142 61 -29 164 -32 245 -8 152 45 244 256 212 486 -14 99
-47 170 -104 227 -53 52 -113 71 -228 71 -73 0 -94 -4 -138 -26z"/>
<path d="M4973 4230 c-98 -21 -173 -86 -224 -195 -16 -34 -32 -85 -36 -114
l-6 -51 340 0 340 0 -4 28 c-26 168 -82 260 -188 308 -57 26 -160 37 -222 24z"/>
</g>
</svg>
