<?xml version="1.0" standalone="no"?>
<!DOCTYPE svg PUBLIC "-//W3C//DTD SVG 20010904//EN"
 "http://www.w3.org/TR/2001/REC-SVG-20010904/DTD/svg10.dtd">
<svg version="1.0" xmlns="http://www.w3.org/2000/svg"
 width="855.000000pt" height="640.000000pt" viewBox="0 0 855.000000 640.000000"
 preserveAspectRatio="xMidYMid meet">
<metadata>
Created by potrace 1.15, written by Peter Selinger 2001-2017
</metadata>
<g transform="translate(0.000000,640.000000) scale(0.100000,-0.100000)"
fill="#000000" stroke="none">
<path d="M6335 6361 c-208 -6 -222 -7 -258 -29 -20 -13 -49 -43 -63 -67 l-25
-44 21 -118 c25 -143 44 -205 80 -258 156 -233 158 -374 8 -550 -124 -145
-271 -223 -489 -258 -292 -48 -632 -21 -796 62 -117 59 -251 182 -291 269 -23
49 -27 69 -27 152 1 89 4 104 54 245 29 83 67 188 83 235 39 109 47 220 21
269 -30 57 -69 70 -249 81 -89 5 -771 10 -1540 9 l-1381 0 -6 -382 c-4 -210
-10 -735 -13 -1167 l-7 -785 -59 -225 c-54 -201 -64 -231 -102 -283 l-41 -58
-85 6 c-118 8 -144 16 -327 106 -89 43 -184 84 -210 90 -59 13 -124 4 -178
-24 -22 -12 -57 -26 -78 -32 -89 -24 -159 -109 -267 -325 -62 -123 -63 -126
-72 -240 -17 -198 6 -417 57 -541 32 -79 91 -156 214 -280 130 -129 200 -169
296 -169 56 0 75 6 184 60 223 110 375 150 490 128 73 -13 90 -23 143 -83 l45
-50 12 -710 c6 -390 11 -858 11 -1038 l0 -329 1382 7 c761 3 2216 10 3233 15
1018 6 1970 10 2116 10 l266 0 6 2103 c7 2079 13 3249 21 3875 l4 322 -397 0
c-219 0 -661 2 -982 4 -321 2 -683 1 -804 -3z m-1371 -1725 c48 -20 93 -81
106 -142 17 -81 9 -1569 -8 -1609 -19 -44 -70 -93 -111 -107 -52 -17 -160 -14
-203 6 -52 25 -77 56 -88 112 -15 69 -24 1191 -12 1441 11 232 18 253 92 291
52 26 170 31 224 8z m-902 -432 c58 -19 123 -74 149 -126 23 -44 35 -123 25
-162 -3 -14 -65 -88 -138 -163 -320 -336 -397 -522 -385 -926 5 -190 23 -277
83 -420 101 -240 346 -488 589 -597 288 -129 654 -133 951 -9 218 91 449 302
568 520 105 191 150 438 127 684 -14 141 -40 234 -101 363 -77 161 -131 234
-288 389 l-145 142 5 68 c3 40 13 84 26 108 37 72 118 131 196 141 40 6 55 2
110 -25 103 -53 267 -216 378 -376 120 -174 236 -445 270 -630 8 -45 13 -158
13 -315 0 -203 -3 -259 -19 -325 -24 -107 -66 -230 -113 -340 -176 -406 -546
-739 -981 -885 -128 -43 -219 -59 -398 -69 -337 -21 -564 24 -849 165 -334
166 -578 417 -746 769 -104 217 -138 357 -146 601 -11 341 28 541 157 809 86
177 189 314 364 483 143 137 198 161 298 126z"/>
</g>
</svg>
