<?xml version="1.0" standalone="no"?>
<!DOCTYPE svg PUBLIC "-//W3C//DTD SVG 20010904//EN"
 "http://www.w3.org/TR/2001/REC-SVG-20010904/DTD/svg10.dtd">
<svg version="1.0" xmlns="http://www.w3.org/2000/svg"
 width="1076.000000pt" height="871.000000pt" viewBox="0 0 1076.000000 871.000000"
 preserveAspectRatio="xMidYMid meet">
<metadata>
Created by potrace 1.15, written by Peter Selinger 2001-2017
</metadata>
<g transform="translate(0.000000,871.000000) scale(0.100000,-0.100000)"
fill="#000000" stroke="none">
<path d="M5770 8703 c-3308 -14 -5166 -24 -5439 -29 l-334 -7 5 -4283 c2
-2356 8 -4287 12 -4291 17 -17 882 -24 2075 -16 1480 11 1316 -5 1308 123 -6
112 -27 165 -160 422 -92 178 -102 228 -102 498 1 249 8 287 85 445 126 261
355 419 725 501 69 15 133 18 445 18 340 -1 372 -2 470 -23 223 -47 362 -108
498 -217 102 -82 162 -155 216 -269 71 -147 81 -195 81 -385 -1 -185 0 -184
-95 -475 -76 -233 -93 -322 -88 -439 7 -153 56 -216 183 -236 127 -20 595 -29
1912 -36 l1302 -7 -1 499 c-1 893 13 1898 33 2444 19 522 20 539 51 694 31
152 34 162 69 199 46 48 46 48 249 -33 275 -109 472 -162 605 -162 142 0 338
57 475 138 73 44 96 65 166 152 33 41 74 92 93 115 45 56 94 162 121 267 47
175 35 664 -20 874 -34 126 -107 321 -168 446 -42 87 -69 128 -111 171 -179
178 -446 275 -660 239 -59 -10 -113 -32 -265 -107 -273 -136 -382 -173 -512
-173 -71 0 -89 10 -118 68 l-24 47 -7 1418 -8 1417 -1311 -2 c-721 -2 -1511
-4 -1756 -5z m-1235 -1208 c42 -76 91 -137 238 -301 188 -209 295 -376 380
-594 147 -377 188 -858 97 -1132 -78 -232 -237 -481 -500 -783 -185 -211 -173
-185 -174 -378 l-1 -162 -27 -3 c-33 -4 -43 14 -52 88 -4 30 -17 113 -28 185
l-21 130 -173 180 c-200 208 -303 332 -381 462 -130 218 -213 486 -213 693 0
342 251 1040 476 1327 30 37 104 113 166 169 62 55 127 119 143 142 17 22 31
41 32 41 1 1 18 -28 38 -64z m1473 -3555 c102 -7 133 -13 178 -35 72 -35 136
-102 176 -183 32 -64 33 -71 33 -187 0 -107 -3 -125 -25 -170 -13 -27 -58 -84
-100 -126 -98 -98 -142 -116 -325 -130 -144 -11 -419 -9 -431 4 -5 4 15 29 43
55 47 44 51 51 58 107 9 68 -1 532 -11 559 -4 10 -31 29 -61 42 -29 13 -53 28
-53 33 0 6 10 17 22 25 18 13 55 16 198 16 96 0 231 -5 298 -10z m932 -1 c107
-13 154 -38 195 -103 42 -69 41 -125 -3 -188 -17 -26 -32 -54 -32 -63 0 -9 24
-40 54 -68 104 -99 101 -225 -5 -321 -65 -58 -132 -83 -269 -97 -112 -12 -349
-8 -382 6 -31 13 -20 35 27 55 30 13 49 29 56 47 7 17 14 136 17 308 5 335 3
348 -72 359 -58 9 -66 23 -32 53 26 22 34 23 194 23 92 0 206 -5 252 -11z
m-3970 -301 c110 -50 152 -107 165 -225 14 -127 -46 -232 -164 -290 -49 -24
-68 -28 -146 -28 -119 0 -172 25 -230 109 -38 55 -40 63 -44 142 -5 119 3 145
56 204 99 111 240 145 363 88z m-1380 7 c7 -8 25 -15 40 -15 15 0 47 7 70 15
71 25 139 20 195 -16 26 -17 55 -28 64 -26 9 3 50 18 91 32 87 32 164 31 208
-2 61 -45 77 -105 98 -353 6 -81 8 -86 42 -117 28 -25 33 -36 24 -45 -13 -13
-216 -24 -256 -14 -35 9 -33 23 11 61 37 32 38 34 41 112 5 100 -12 210 -36
243 -24 31 -80 45 -135 34 -57 -12 -66 -41 -66 -221 l-1 -143 38 -35 c51 -48
36 -55 -114 -55 -142 0 -165 11 -116 52 43 36 52 59 52 130 0 87 -18 225 -33
249 -21 34 -76 44 -140 25 -33 -10 -61 -24 -67 -36 -12 -22 -12 -126 -1 -254
8 -87 9 -90 45 -119 20 -16 33 -33 30 -38 -3 -5 -64 -9 -135 -9 -167 0 -204
16 -135 59 45 28 56 75 56 246 l0 135 -45 22 c-67 33 -63 39 54 74 92 27 105
28 121 9z m1875 -5 c8 -25 24 -25 103 0 81 25 132 25 181 0 78 -39 92 -76 115
-308 l15 -142 35 -34 c20 -18 36 -42 36 -53 0 -18 -7 -19 -122 -16 -164 5
-188 9 -188 33 0 11 12 26 29 35 16 8 33 25 37 37 11 33 6 286 -6 309 -41 75
-199 67 -221 -12 -11 -39 -10 -245 2 -276 6 -15 26 -42 46 -60 30 -27 33 -35
23 -48 -10 -12 -41 -15 -156 -15 -89 0 -144 4 -144 10 0 5 16 27 35 48 19 21
39 51 45 66 5 15 10 92 10 170 l0 143 -40 18 c-80 36 -73 53 38 91 86 29 119
30 127 4z m982 4 c70 -12 104 -14 133 -6 30 7 42 7 50 -3 17 -21 -15 -74 -55
-91 -30 -12 -35 -20 -45 -71 -7 -32 -18 -70 -26 -84 -23 -45 -93 -97 -173
-127 -44 -17 -76 -35 -76 -43 0 -9 23 -18 70 -27 189 -35 218 -43 251 -76 141
-141 -87 -372 -349 -353 -55 3 -77 10 -110 34 -91 64 -111 136 -53 200 61 69
69 99 36 140 -27 34 -26 39 17 77 l36 34 -35 43 c-58 72 -71 105 -66 170 6 76
41 122 128 167 74 38 122 41 267 16z m694 1 c62 -22 113 -60 146 -108 26 -40
28 -48 28 -147 0 -88 -4 -112 -22 -146 -50 -94 -159 -154 -282 -154 -123 0
-202 44 -248 138 -24 49 -28 69 -27 142 1 136 52 217 170 265 70 29 169 33
235 10z"/>
<path d="M5783 3833 c-4 -21 -8 -161 -8 -311 l0 -274 32 -28 c57 -51 206 -54
289 -5 165 97 193 402 50 553 -60 65 -166 102 -291 102 l-64 0 -8 -37z"/>
<path d="M6760 3823 c0 -28 -3 -92 -7 -143 l-6 -93 84 5 c96 5 141 24 164 68
34 67 4 148 -68 184 -21 10 -68 21 -103 24 l-64 5 0 -50z"/>
<path d="M6762 3370 c4 -187 2 -185 126 -185 104 0 134 14 163 78 25 57 24
102 -6 153 -30 52 -84 80 -180 93 -118 18 -107 32 -103 -139z"/>
<path d="M2749 3575 c-95 -51 -83 -306 18 -385 24 -19 38 -21 95 -18 53 3 72
8 92 27 41 39 59 162 34 242 -13 46 -68 113 -109 134 -35 19 -96 19 -130 0z"/>
<path d="M4263 3592 c-12 -2 -36 -19 -53 -38 -92 -106 49 -299 148 -201 22 23
27 37 30 95 4 65 2 71 -27 104 -31 36 -57 46 -98 40z"/>
<path d="M4194 3036 c-11 -8 -28 -32 -38 -54 -17 -37 -17 -41 -1 -65 38 -59
177 -87 258 -53 80 33 115 127 60 163 -38 25 -248 32 -279 9z"/>
<path d="M4921 3560 c-69 -69 -69 -240 0 -328 71 -92 201 -96 244 -6 13 28 16
56 13 127 -4 113 -24 158 -92 205 -66 44 -122 45 -165 2z"/>
</g>
</svg>
