<?xml version="1.0" standalone="no"?>
<!DOCTYPE svg PUBLIC "-//W3C//DTD SVG 20010904//EN"
 "http://www.w3.org/TR/2001/REC-SVG-20010904/DTD/svg10.dtd">
<svg version="1.0" xmlns="http://www.w3.org/2000/svg"
 width="939.000000pt" height="1049.000000pt" viewBox="0 0 939.000000 1049.000000"
 preserveAspectRatio="xMidYMid meet">
<metadata>
Created by potrace 1.15, written by Peter Selinger 2001-2017
</metadata>
<g transform="translate(0.000000,1049.000000) scale(0.100000,-0.100000)"
fill="#000000" stroke="none">
<path d="M1013 10483 l-933 -3 0 -1388 c0 -1667 10 -2022 58 -2122 25 -52 52
-45 231 64 86 51 181 106 211 121 30 15 107 59 170 98 63 38 149 86 190 106
l75 36 155 -1 c297 -3 484 -54 637 -176 187 -148 304 -351 365 -631 19 -90 22
-133 22 -357 1 -355 -23 -532 -97 -707 -68 -161 -206 -334 -334 -419 -76 -50
-202 -108 -308 -140 -84 -26 -102 -28 -265 -28 -197 0 -241 8 -489 89 -198 64
-292 85 -416 91 -135 7 -164 -5 -207 -82 -73 -131 -78 -248 -78 -1875 l0
-1356 387 -7 c214 -3 1077 -8 1918 -12 1866 -7 1867 -7 1931 -101 30 -45 46
-156 33 -229 -6 -33 -51 -178 -99 -324 -124 -370 -156 -526 -129 -623 22 -82
197 -278 322 -360 184 -122 363 -153 835 -144 383 7 503 34 688 156 167 110
283 236 353 381 34 71 36 81 36 175 l0 100 -64 120 c-35 66 -81 149 -101 185
-62 109 -105 275 -104 410 0 79 4 103 23 143 29 59 89 112 144 125 109 28 529
36 1866 36 l1353 1 -5 3735 c-5 3384 -12 4307 -33 4768 l-7 152 -3701 -2
c-2035 -2 -4121 -4 -4633 -5z m5080 -1194 c56 -28 128 -67 160 -86 l57 -34 -1
-637 c-1 -350 -4 -662 -7 -692 l-7 -55 -85 -51 c-118 -71 -289 -161 -378 -200
l-75 -33 -61 31 c-77 39 -384 210 -431 240 l-35 23 0 285 0 285 153 86 c243
138 362 199 388 199 13 0 53 -14 87 -30 35 -17 70 -30 77 -30 21 0 25 51 25
324 0 279 8 426 22 426 4 0 54 -23 111 -51z m-3124 -694 c80 -41 198 -105 261
-143 l115 -67 8 -75 c11 -103 4 -657 -9 -670 -10 -10 -119 41 -261 123 l-73
42 0 195 0 195 -58 37 c-109 70 -141 71 -253 11 l-66 -35 -11 -201 c-10 -192
-12 -202 -34 -219 -44 -34 -286 -153 -295 -145 -4 5 -8 173 -8 375 l0 366 50
29 c180 107 458 256 479 257 4 0 74 -34 155 -75z m1439 16 c101 -51 335 -180
398 -221 19 -12 22 -25 27 -144 3 -72 2 -200 -1 -284 -7 -148 -8 -154 -32
-172 -39 -30 -171 -107 -345 -202 l-160 -87 -105 55 c-163 87 -389 217 -409
236 -16 14 -20 39 -25 150 -4 73 -3 200 1 283 l8 150 50 33 c77 50 457 261
473 262 1 0 55 -27 120 -59z m3245 -165 l117 -68 0 -87 0 -87 -87 -51 c-103
-61 -242 -128 -249 -120 -3 2 -8 38 -11 78 -3 47 -12 81 -22 93 -9 10 -50 36
-93 57 l-76 38 -89 -48 -88 -48 -3 -115 -3 -116 158 -88 c200 -111 333 -193
333 -204 0 -10 -83 -60 -211 -127 l-97 -50 -73 40 c-271 147 -435 241 -441
250 -5 7 -7 142 -5 301 l2 289 115 65 c63 35 180 100 260 143 l144 78 151 -78
c82 -43 203 -108 268 -145z m-363 -286 c39 -20 40 -22 40 -70 0 -47 -2 -51
-40 -75 -22 -14 -44 -25 -50 -25 -6 0 -28 11 -50 25 -38 24 -40 28 -40 75 0
47 2 51 38 69 47 25 54 25 102 1z m-1872 -743 c516 -270 1489 -802 1692 -923
118 -72 139 -87 166 -129 18 -28 19 -67 28 -964 9 -939 3 -1298 -24 -1366 -40
-105 -111 -159 -492 -373 -355 -201 -1392 -765 -1503 -818 -163 -78 -232 -90
-327 -54 -92 35 -609 320 -687 379 l-25 19 55 27 c82 42 209 95 226 95 9 0
118 -53 242 -119 124 -65 243 -125 264 -132 39 -14 39 -14 192 64 279 142
1433 769 1662 903 70 41 95 61 100 82 10 34 11 2078 1 2112 -8 28 -19 35 -273
180 -440 251 -1626 890 -1654 890 -6 0 -39 -15 -73 -34 -35 -18 -175 -93 -313
-166 -595 -316 -1295 -704 -1481 -822 l-62 -38 -7 -273 c-3 -149 -5 -623 -3
-1052 2 -615 6 -785 16 -803 17 -29 46 -47 285 -176 303 -164 321 -171 447
-171 126 0 163 16 228 100 l42 53 1 689 c1 806 11 1418 22 1430 11 10 253 10
264 -1 4 -4 12 -161 17 -349 10 -399 -7 -1773 -24 -1852 -32 -155 -152 -279
-318 -328 -146 -44 -275 -42 -419 5 -116 38 -491 231 -673 345 -77 49 -106 78
-151 154 l-39 65 1 945 c0 519 4 1021 8 1114 7 163 8 172 35 218 35 59 92 105
234 190 321 193 1704 946 1852 1008 36 15 62 18 128 15 l82 -4 258 -135z m485
-1351 c172 -31 301 -97 408 -207 65 -68 110 -152 141 -268 l22 -84 -22 -18
c-46 -37 -213 -39 -252 -4 -12 11 -37 50 -57 88 -82 156 -176 219 -352 237
-149 15 -393 12 -472 -4 -93 -20 -164 -53 -198 -92 -35 -39 -56 -127 -47 -193
15 -108 78 -130 621 -220 468 -78 606 -120 714 -217 58 -52 94 -108 111 -173
15 -58 15 -223 -1 -286 -55 -225 -289 -383 -626 -424 -406 -50 -760 4 -978
150 -91 61 -137 113 -181 204 -37 77 -67 196 -57 233 8 33 40 42 151 42 134 0
136 -1 157 -68 70 -224 159 -280 484 -303 237 -17 473 3 581 47 108 45 160
120 160 229 0 176 -81 211 -675 295 -254 36 -384 62 -474 96 -144 54 -229 123
-281 226 -29 59 -30 66 -30 196 l0 134 36 69 c87 165 308 300 541 329 105 13
473 4 576 -14z"/>
<path d="M5670 8289 c-104 -47 -121 -75 -122 -203 -1 -74 15 -95 118 -156 l86
-51 79 43 c120 64 123 69 127 196 l4 107 -84 43 c-95 48 -138 53 -208 21z"/>
</g>
</svg>
