<?xml version="1.0" standalone="no"?>
<!DOCTYPE svg PUBLIC "-//W3C//DTD SVG 20010904//EN"
 "http://www.w3.org/TR/2001/REC-SVG-20010904/DTD/svg10.dtd">
<svg version="1.0" xmlns="http://www.w3.org/2000/svg"
 width="537.000000pt" height="652.000000pt" viewBox="0 0 537.000000 652.000000"
 preserveAspectRatio="xMidYMid meet">
<metadata>
Created by potrace 1.15, written by Peter Selinger 2001-2017
</metadata>
<g transform="translate(0.000000,652.000000) scale(0.100000,-0.100000)"
fill="#000000" stroke="none">
<path d="M60 6458 c0 -18 -7 -303 -15 -633 -19 -768 -19 -1081 -2 -1115 11
-21 19 -25 58 -23 120 4 246 49 398 145 46 29 123 40 199 28 257 -41 449 -307
493 -680 14 -127 7 -336 -15 -405 -64 -198 -209 -351 -384 -405 -120 -37 -230
-22 -457 64 -65 25 -130 48 -145 51 -60 13 -89 -54 -111 -255 -25 -242 -20
-1760 7 -1982 l6 -48 968 0 967 0 106 -109 c77 -80 109 -121 118 -150 12 -39
10 -44 -52 -173 l-64 -133 0 -135 c1 -151 11 -190 84 -311 76 -127 157 -159
403 -159 285 0 412 28 503 111 95 88 140 210 133 363 -3 75 -7 90 -65 211 -70
146 -87 207 -77 274 13 87 49 148 109 187 26 17 53 19 295 22 146 2 609 -1
1030 -6 421 -5 766 -8 768 -7 6 4 -19 1664 -27 1805 -10 172 -19 205 -56 222
-32 15 -71 3 -240 -70 l-130 -57 -140 0 c-138 0 -141 1 -206 32 -178 88 -284
240 -357 512 -36 135 -37 326 -4 454 63 237 167 392 317 470 31 16 64 21 150
25 136 5 226 -8 357 -53 189 -65 259 -67 329 -7 l31 26 -7 955 c-3 526 -9 964
-11 974 -5 16 -139 17 -2635 17 l-2629 0 0 -32z m2862 -835 c8 -71 27 -113 64
-142 55 -43 118 -37 208 19 57 36 66 37 96 5 l23 -24 -42 -69 c-33 -56 -41
-77 -41 -118 0 -80 47 -127 147 -145 70 -13 83 -23 83 -60 0 -35 -25 -52 -103
-68 -37 -8 -70 -23 -90 -40 -26 -24 -31 -36 -35 -89 -4 -59 -2 -65 38 -126 40
-62 41 -65 25 -89 -26 -40 -42 -39 -113 3 -80 48 -139 54 -193 17 -34 -23 -45
-46 -73 -148 -12 -43 -21 -58 -38 -62 -36 -10 -65 17 -73 65 -11 75 -25 106
-61 138 -29 25 -43 30 -86 30 -43 0 -64 -7 -120 -41 l-69 -42 -24 23 c-14 13
-25 29 -25 36 0 6 18 43 40 80 44 76 49 111 22 163 -23 47 -55 68 -132 87 -76
19 -90 28 -90 60 0 34 22 50 87 63 75 15 115 40 137 86 25 51 16 100 -29 175
-34 55 -36 64 -25 86 22 39 46 39 112 -1 32 -20 76 -39 97 -42 75 -10 143 45
157 127 3 19 10 52 15 73 10 38 10 38 57 35 l47 -3 7 -62z m205 -1091 c17 -11
39 -69 47 -123 8 -56 48 -120 90 -145 20 -12 51 -18 87 -19 49 0 65 5 134 48
42 26 85 47 94 47 21 0 71 -50 71 -71 0 -8 -12 -31 -26 -50 -41 -54 -74 -130
-74 -173 0 -49 33 -119 66 -141 15 -9 65 -26 113 -38 47 -11 92 -25 99 -30 6
-5 12 -29 12 -52 0 -23 -6 -47 -12 -53 -7 -5 -49 -17 -92 -26 -131 -27 -190
-87 -183 -188 3 -47 12 -71 50 -134 26 -42 47 -82 47 -89 0 -16 -57 -65 -75
-65 -8 0 -41 17 -74 39 -74 48 -136 64 -191 52 -84 -19 -108 -50 -139 -182
-21 -89 -36 -109 -82 -109 -41 0 -54 20 -77 116 -26 104 -55 146 -117 170 -61
23 -129 8 -210 -46 -33 -22 -68 -40 -77 -40 -16 0 -78 55 -78 69 0 5 20 38 44
75 55 85 71 139 57 193 -22 82 -62 112 -192 142 -45 10 -85 25 -90 33 -11 16
-11 69 -1 84 11 17 48 34 75 34 53 0 129 32 166 69 68 68 64 141 -15 268 -50
80 -49 94 4 132 l29 20 69 -43 c89 -55 134 -70 189 -62 80 12 120 64 150 192
9 37 23 76 32 86 17 18 59 24 80 10z m-1160 -137 c28 -73 48 -94 95 -102 28
-4 47 1 84 21 84 47 112 27 74 -53 -44 -96 -25 -158 59 -186 91 -30 96 -70 13
-95 -30 -8 -62 -25 -73 -39 -25 -31 -25 -100 1 -151 40 -78 18 -95 -70 -56
-99 44 -156 19 -181 -80 -22 -85 -59 -83 -89 5 -9 29 -27 62 -38 74 -28 27
-94 27 -149 -1 -81 -42 -100 -20 -58 68 45 95 20 154 -79 182 -87 24 -86 54 3
87 101 37 123 88 76 181 -29 58 -31 76 -9 88 12 7 33 1 73 -20 42 -22 64 -28
90 -24 43 7 78 39 87 80 11 50 34 88 51 84 10 -2 27 -28 40 -63z m-632 -1555
c-47 -5 -33 -7 60 -7 89 0 106 2 65 7 -51 6 -49 7 33 8 80 2 110 -7 71 -22 -9
-3 -112 -6 -230 -6 l-214 0 0 -155 0 -155 214 0 c194 0 255 -7 210 -24 -9 -3
-108 -6 -220 -6 l-204 0 0 -170 0 -170 238 0 237 0 70 95 c39 53 79 110 89
128 l20 34 -61 79 c-81 107 -117 163 -110 171 11 10 36 -17 107 -113 38 -50
74 -95 81 -99 13 -9 31 10 137 138 56 69 82 91 82 70 0 -5 -41 -62 -90 -128
-50 -66 -90 -123 -90 -127 0 -5 45 -68 100 -140 59 -78 96 -134 89 -137 -15
-5 -59 43 -148 157 -35 45 -67 82 -71 82 -5 0 -49 -54 -100 -120 l-91 -120
-257 2 -257 3 -3 368 -2 367 152 -2 c112 -1 137 -3 93 -8z m1050 -199 c49 -22
90 -63 118 -116 18 -33 22 -58 22 -145 0 -98 -2 -109 -30 -160 -40 -72 -93
-109 -168 -117 -78 -8 -136 10 -183 58 -20 21 -41 36 -46 33 -4 -3 -8 -59 -8
-124 0 -124 -6 -162 -21 -138 -10 15 -12 651 -3 686 10 35 24 26 24 -16 0 -21
3 -42 6 -45 4 -4 29 14 56 38 74 66 155 82 233 46z m466 4 c0 -5 -19 -15 -44
-21 -60 -16 -82 -29 -111 -67 -36 -48 -46 -99 -46 -233 0 -133 -8 -214 -21
-214 -12 0 -12 527 0 534 11 7 21 -17 21 -52 l0 -26 28 26 c44 41 106 68 150
65 12 -1 23 -6 23 -12z m336 -10 c73 -37 123 -115 138 -217 l7 -48 -222 0
-223 0 5 -50 c11 -116 86 -190 192 -190 91 1 159 45 191 128 18 45 43 52 36
11 -9 -61 -80 -142 -140 -159 -57 -16 -142 -12 -187 9 -52 23 -98 80 -115 140
-30 105 -8 250 47 316 15 18 22 22 18 11 -5 -14 -3 -17 7 -14 8 3 14 12 14 21
0 21 10 29 58 49 61 24 115 22 174 -7z m486 10 c9 -4 17 -12 17 -18 0 -14 30
-47 43 -47 6 0 0 12 -14 28 l-24 27 27 -24 c30 -27 64 -103 53 -121 -10 -16
-32 5 -40 39 -3 16 -19 41 -36 57 -26 25 -39 29 -103 32 -110 6 -166 -28 -166
-102 0 -50 34 -73 168 -116 136 -42 173 -67 186 -123 7 -31 -9 -103 -26 -113
-7 -4 -8 -3 -4 4 12 20 -10 13 -29 -8 -14 -15 -15 -20 -4 -21 8 0 -4 -9 -26
-20 -59 -27 -167 -26 -225 4 -56 27 -90 77 -90 128 0 51 16 50 31 -3 17 -65
63 -105 131 -113 110 -14 189 17 207 80 20 73 -11 104 -143 145 -135 42 -175
60 -188 83 -64 120 23 225 177 213 33 -3 68 -8 78 -11z m477 0 c9 -3 21 -19
28 -35 8 -17 21 -30 31 -30 20 0 41 -39 41 -76 0 -38 -20 -24 -39 26 -24 64
-66 90 -148 90 -105 0 -153 -31 -153 -99 0 -62 19 -77 149 -116 163 -49 201
-78 201 -154 0 -63 -29 -107 -87 -133 -38 -17 -61 -20 -129 -16 -71 4 -87 8
-119 33 -48 36 -80 105 -67 143 9 26 10 25 28 -27 10 -29 29 -64 40 -76 29
-31 96 -48 166 -42 94 8 138 47 138 122 0 54 -26 70 -225 132 -77 24 -93 33
-112 62 -49 74 -12 161 84 197 36 14 137 13 173 -1z"/>
<path d="M2767 5366 c-93 -35 -164 -109 -188 -201 -14 -51 -5 -164 16 -205 27
-52 86 -110 139 -138 58 -30 146 -35 225 -13 51 15 143 96 172 153 27 54 27
194 -1 248 -29 56 -76 107 -128 137 -55 32 -174 42 -235 19z"/>
<path d="M3024 4145 c-34 -7 -80 -23 -103 -35 -58 -29 -128 -104 -160 -170
-23 -48 -26 -68 -26 -155 0 -87 3 -107 27 -157 14 -31 47 -78 73 -103 25 -26
72 -59 103 -73 50 -24 70 -27 157 -27 122 0 171 20 256 105 76 75 103 144 103
260 0 71 -4 94 -26 142 -73 158 -241 247 -404 213z"/>
<path d="M1835 4224 c-169 -87 -164 -327 7 -398 81 -34 173 -14 241 52 54 52
71 135 47 222 -12 43 -71 103 -122 125 -48 19 -135 19 -173 -1z"/>
<path d="M2208 2600 c-70 -38 -109 -118 -110 -224 0 -176 119 -283 263 -235
86 29 134 119 133 249 -1 90 -28 157 -82 198 -47 36 -149 42 -204 12z"/>
<path d="M2995 2597 c-47 -27 -94 -99 -102 -156 l-6 -41 203 0 203 0 -6 41
c-9 69 -47 130 -96 156 -59 31 -141 31 -196 0z"/>
</g>
</svg>
