<?xml version="1.0" standalone="no"?>
<!DOCTYPE svg PUBLIC "-//W3C//DTD SVG 20010904//EN"
 "http://www.w3.org/TR/2001/REC-SVG-20010904/DTD/svg10.dtd">
<svg version="1.0" xmlns="http://www.w3.org/2000/svg"
 width="101.000000pt" height="84.000000pt" viewBox="0 0 101.000000 84.000000"
 preserveAspectRatio="xMidYMid meet">
<metadata>
Created by potrace 1.15, written by Peter Selinger 2001-2017
</metadata>
<g transform="translate(0.000000,84.000000) scale(0.100000,-0.100000)"
fill="#000000" stroke="none">
<path d="M88 833 l-88 -4 0 -415 0 -415 148 3 147 3 -2 25 c-1 14 -5 41 -9 60
-5 29 -1 39 19 58 37 35 94 39 137 10 37 -26 41 -47 25 -126 l-7 -32 188 0
189 0 -3 153 c-3 141 -1 154 16 171 18 16 23 16 56 2 42 -18 78 -9 95 23 14
25 14 106 1 131 -16 30 -66 42 -105 26 -27 -12 -37 -12 -51 -2 -16 12 -17 28
-11 175 l7 161 -332 -2 c-183 -1 -372 -4 -420 -5z m725 -172 l-6 -159 27 -17
c23 -15 30 -16 59 -4 37 16 55 14 80 -8 24 -23 23 -97 -2 -122 -18 -18 -22
-18 -62 -4 -51 17 -85 6 -95 -30 -3 -14 -4 -89 -2 -167 l3 -143 -80 7 c-44 3
-120 6 -169 6 -80 0 -87 2 -80 18 4 9 9 35 12 58 3 36 0 44 -27 67 -59 49
-163 45 -197 -8 -16 -25 -16 -80 0 -118 8 -16 -2 -17 -123 -17 l-131 0 0 400
0 400 399 0 399 0 -5 -159z"/>
</g>
</svg>
