<?xml version="1.0" standalone="no"?>
<!DOCTYPE svg PUBLIC "-//W3C//DTD SVG 20010904//EN"
 "http://www.w3.org/TR/2001/REC-SVG-20010904/DTD/svg10.dtd">
<svg version="1.0" xmlns="http://www.w3.org/2000/svg"
 width="84.000000pt" height="101.000000pt" viewBox="0 0 84.000000 101.000000"
 preserveAspectRatio="xMidYMid meet">
<g transform="translate(0.000000,101.000000) scale(0.100000,-0.100000)"
fill="#000000" stroke="none">
<path d="M0 844 l0 -167 39 7 c22 3 45 8 53 11 23 9 75 -32 88 -69 9 -29 8
-41 -5 -70 -26 -55 -55 -69 -110 -54 -39 11 -48 10 -55 -2 -11 -16 -14 -250
-4 -296 l5 -29 138 3 c149 3 198 -6 186 -36 -21 -52 -18 -83 10 -113 25 -25
36 -29 82 -29 40 0 58 5 73 20 23 23 24 38 9 91 -20 66 -13 69 172 62 l159 -6
-2 169 -3 169 -30 -2 c-16 -1 -44 -5 -60 -8 -24 -5 -35 -2 -53 18 -39 41 -42
126 -5 162 13 14 28 16 85 10 l68 -7 0 166 0 166 -420 0 -420 0 0 -166z m533
146 l287 0 0 -145 0 -146 -49 7 c-67 9 -98 -1 -116 -36 -30 -59 -9 -166 37
-191 20 -11 61 -8 106 6 l22 7 0 -151 0 -152 -155 2 c-165 2 -185 -3 -185 -46
0 -12 5 -37 11 -54 10 -29 9 -35 -8 -53 -30 -30 -89 -27 -121 6 -24 24 -25 28
-14 59 15 42 15 74 0 83 -6 4 -79 7 -162 5 -113 -1 -151 1 -158 11 -4 7 -8 75
-8 152 l0 138 23 -6 c66 -19 83 -18 114 8 42 36 59 87 44 135 -21 71 -70 96
-148 77 l-33 -8 0 153 0 152 113 -6 c61 -4 241 -7 400 -7z"/>
</g>
</svg>
