<?xml version="1.0" standalone="no"?>
<!DOCTYPE svg PUBLIC "-//W3C//DTD SVG 20010904//EN"
 "http://www.w3.org/TR/2001/REC-SVG-20010904/DTD/svg10.dtd">
<svg version="1.0" xmlns="http://www.w3.org/2000/svg"
 width="84.000000pt" height="101.000000pt" viewBox="0 0 84.000000 101.000000"
 preserveAspectRatio="xMidYMid meet">
<metadata>
Created by potrace 1.15, written by Peter Selinger 2001-2017
</metadata>
<g transform="translate(0.000000,101.000000) scale(0.100000,-0.100000)"
fill="#000000" stroke="none">
<path d="M300 990 c-23 -23 -25 -49 -8 -96 9 -26 9 -36 -2 -49 -12 -15 -32
-17 -152 -13 l-138 3 0 -417 0 -418 420 0 420 0 0 164 c0 179 -3 187 -55 160
-85 -44 -157 36 -122 136 16 47 49 62 103 48 74 -20 74 -20 74 166 l0 166
-187 2 -188 3 2 25 c1 14 5 42 9 63 10 58 -13 77 -93 77 -50 0 -67 -4 -83 -20z
m139 -6 c18 -13 22 -23 17 -45 -26 -125 -36 -119 185 -119 l179 0 0 -151 0
-151 -37 8 c-60 13 -92 8 -117 -15 -46 -43 -42 -172 7 -206 24 -17 102 -21
112 -5 3 6 13 10 21 10 11 0 14 -26 14 -150 l0 -150 -400 0 -400 0 0 403 0
402 140 0 c171 0 173 1 145 115 -8 36 7 52 57 60 23 4 45 8 48 9 3 0 16 -6 29
-15z"/>
</g>
</svg>
