<?xml version="1.0" standalone="no"?>
<!DOCTYPE svg PUBLIC "-//W3C//DTD SVG 20010904//EN"
 "http://www.w3.org/TR/2001/REC-SVG-20010904/DTD/svg10.dtd">
<svg version="1.0" xmlns="http://www.w3.org/2000/svg"
 width="119.000000pt" height="83.000000pt" viewBox="0 0 119.000000 83.000000"
 preserveAspectRatio="xMidYMid meet">
<metadata>
Created by potrace 1.15, written by Peter Selinger 2001-2017
</metadata>
<g transform="translate(0.000000,83.000000) scale(0.100000,-0.100000)"
fill="#000000" stroke="none">
<path d="M180 671 c0 -184 -3 -190 -69 -166 -70 24 -111 -5 -111 -79 0 -83 40
-118 113 -99 65 18 67 13 67 -168 l0 -159 164 0 c183 0 187 2 161 64 -16 37
-9 72 16 93 40 32 138 21 159 -17 13 -24 13 -66 -1 -91 -22 -43 0 -49 172 -49
l159 0 0 164 c0 152 1 165 19 171 10 3 30 1 45 -5 42 -16 65 -12 91 15 19 18
25 35 25 69 0 59 -7 74 -43 92 -25 14 -36 14 -68 4 -68 -23 -69 -20 -69 160
l0 160 -415 0 -415 0 0 -159z m810 -10 c0 -132 3 -162 16 -175 16 -16 48 -14
88 6 26 14 70 -20 74 -57 9 -73 -26 -106 -89 -85 -30 10 -45 10 -64 2 l-25
-12 0 -160 0 -160 -144 0 -145 0 6 55 c7 69 -11 100 -66 115 -114 31 -188 -36
-157 -141 7 -23 4 -27 -20 -32 -15 -3 -81 -2 -146 1 l-118 5 0 153 c0 125 -3
155 -16 168 -18 19 -33 20 -70 5 -38 -14 -68 -5 -82 26 -18 40 -14 82 9 104
19 18 24 18 61 5 51 -18 63 -18 82 2 13 13 16 43 16 175 l0 159 395 0 395 0 0
-159z"/>
</g>
</svg>
